<?xml version="1.0" encoding="UTF-8" standalone="no"?><!DOCTYPE svg PUBLIC "-//W3C//DTD SVG 1.1//EN" "http://www.w3.org/Graphics/SVG/1.1/DTD/svg11.dtd"><svg width="100%" height="100%" viewBox="0 0 636 834" version="1.1" xmlns="http://www.w3.org/2000/svg" xmlns:xlink="http://www.w3.org/1999/xlink" xml:space="preserve" xmlns:serif="http://www.serif.com/" style="fill-rule:evenodd;clip-rule:evenodd;stroke-linecap:round;stroke-linejoin:round;stroke-miterlimit:1.5;"><rect id="Plan-de-travail1" serif:id="Plan de travail1" x="0" y="0" width="636" height="833.5" style="fill:none;"/><g id="Plan-de-travail11" serif:id="Plan de travail1"><path d="M444.534,28.096l30.033,-4.066" style="fill:none;stroke:#000;stroke-width:2px;"/><path d="M476.519,36.986l-31.985,-8.945" style="fill:none;stroke:#000;stroke-width:2px;"/><path d="M474.73,23.976l2.06,13.173" style="fill:none;stroke:#000;stroke-width:2px;"/><path d="M474.73,24.138l24.395,11.168" style="fill:none;stroke:#000;stroke-width:2px;"/><path d="M476.681,36.932l12.631,13.661" style="fill:none;stroke:#000;stroke-width:2px;"/><path d="M499.287,35.36l-9.92,15.287" style="fill:none;stroke:#000;stroke-width:2px;"/><path d="M499.157,35.002l13.897,28.621" style="fill:none;stroke:#000;stroke-width:2px;"/><path d="M491.486,67.777l21.631,-4.012" style="fill:none;stroke:#000;stroke-width:2px;"/><path d="M491.378,67.831l-2.006,-17.131" style="fill:none;stroke:#000;stroke-width:2px;"/><path d="M491.519,67.771l-14.231,43.285" style="fill:none;stroke:#000;stroke-width:2px;"/><path d="M513.203,63.875l-35.915,47.35" style="fill:none;stroke:#000;stroke-width:2px;"/><path d="M510.323,104.872l2.88,-40.997" style="fill:none;stroke:#000;stroke-width:2px;"/><path d="M510.493,104.788l-32.951,6.437" style="fill:none;stroke:#000;stroke-width:2px;"/><path d="M477.614,111.241l15.755,33.12" style="fill:none;stroke:#000;stroke-width:2px;"/><path d="M510.225,105.058l-16.771,39.303" style="fill:none;stroke:#000;stroke-width:2px;"/><path d="M477.407,110.851l-32.823,56.778" style="fill:none;stroke:#000;stroke-width:2px;"/><path d="M444.584,167.497l48.837,-23.426" style="fill:none;stroke:#000;stroke-width:2px;"/><path d="M493.554,144.203l-31.897,55.058" style="fill:none;stroke:#000;stroke-width:2px;"/><path d="M444.584,167.497l17.338,31.764" style="fill:none;stroke:#000;stroke-width:2px;"/><path d="M444.775,167.198l-39.706,61.544" style="fill:none;stroke:#000;stroke-width:2px;"/><path d="M405.069,228.609l56.779,-29.646" style="fill:none;stroke:#000;stroke-width:2px;"/><path d="M462.017,199.234l-32.294,56.858" style="fill:none;stroke:#000;stroke-width:2px;"/><path d="M405.053,228.669l24.651,27.422" style="fill:none;stroke:#000;stroke-width:2px;"/><path d="M405.121,228.713l-2.674,83.207" style="fill:none;stroke:#000;stroke-width:2px;"/><path d="M402.462,312.112l27.431,-56.001" style="fill:none;stroke:#000;stroke-width:2px;"/><path d="M405.231,228.532l-44.668,81.066" style="fill:none;stroke:#000;stroke-width:2px;"/><path d="M402.47,312.273l-41.742,-2.711" style="fill:none;stroke:#000;stroke-width:2px;"/><path d="M360.855,309.266l-17.735,52.94" style="fill:none;stroke:#000;stroke-width:2px;"/><path d="M402.546,312.31l-59.691,49.764" style="fill:none;stroke:#000;stroke-width:2px;"/><path d="M402.414,312.31l-23.03,76.499" style="fill:none;stroke:#000;stroke-width:2px;"/><path d="M342.988,362.074l36.661,26.735" style="fill:none;stroke:#000;stroke-width:2px;"/><path d="M343.148,362.293l-0.992,54.429" style="fill:none;stroke:#000;stroke-width:2px;"/><path d="M379.71,388.929l-37.554,27.628" style="fill:none;stroke:#000;stroke-width:2px;"/><path d="M379.545,388.763l-2.647,48.805" style="fill:none;stroke:#000;stroke-width:2px;"/><path d="M377.007,437.235l-34.851,-20.513" style="fill:none;stroke:#000;stroke-width:2px;"/><path d="M342.437,395.406c-0.932,-0 -13.637,-6.268 -13.637,-6.268" style="fill:none;stroke:#000;stroke-width:2px;"/><path d="M378.764,400.466l22.295,-22.618" style="fill:none;stroke:#000;stroke-width:2px;"/><path d="M401,377.635l34.015,-20.515" style="fill:none;stroke:#000;stroke-width:2px;"/><path d="M435.052,357.089l26.554,-21.744" style="fill:none;stroke:#000;stroke-width:2px;"/><path d="M461.72,335.246l20.112,-11.71" style="fill:none;stroke:#000;stroke-width:2px;"/><path d="M481.981,323.437l9.159,-10.304" style="fill:none;stroke:#000;stroke-width:2px;"/><path d="M491.394,313.012l24.246,-22.235" style="fill:none;stroke:#000;stroke-width:2px;"/><path d="M515.746,290.777l30.176,-21.918" style="fill:none;stroke:#000;stroke-width:2px;"/><path d="M545.913,268.792l31.876,-16.643" style="fill:none;stroke:#000;stroke-width:2px;"/><path d="M577.885,252.17l2.385,38.707" style="fill:none;stroke:#000;stroke-width:2px;"/><path d="M580.263,290.793l-5.691,34.279" style="fill:none;stroke:#000;stroke-width:2px;"/><path d="M574.572,324.94l-5.691,18.793" style="fill:none;stroke:#000;stroke-width:2px;"/><path d="M568.881,343.601l-19.72,24.485" style="fill:none;stroke:#000;stroke-width:2px;"/><path d="M549.26,367.858l-21.507,18.86" style="fill:none;stroke:#000;stroke-width:2px;"/><path d="M527.684,386.778l-19.567,12.113" style="fill:none;stroke:#000;stroke-width:2px;"/><path d="M508.117,398.891l-26.004,10.164" style="fill:none;stroke:#000;stroke-width:2px;"/><path d="M482.012,409.057l-12.577,9.238" style="fill:none;stroke:#000;stroke-width:2px;"/><path d="M469.41,418.277l-5.4,11.647" style="fill:none;stroke:#000;stroke-width:2px;"/><path d="M464.222,429.924l-19.058,27.317" style="fill:none;stroke:#000;stroke-width:2px;"/><path d="M445.2,457.2l-23.86,30.746" style="fill:none;stroke:#000;stroke-width:2px;"/><path d="M421.417,487.854l3.74,-41.634" style="fill:none;stroke:#000;stroke-width:2px;"/><path d="M425.157,446.058l-0.379,-22.39" style="fill:none;stroke:#000;stroke-width:2px;"/><path d="M424.778,423.668l-4.12,-15.07" style="fill:none;stroke:#000;stroke-width:2px;"/><path d="M420.614,408.375l2.06,-25.371" style="fill:none;stroke:#000;stroke-width:2px;"/><path d="M422.703,382.721l2.831,-10.27" style="fill:none;stroke:#000;stroke-width:2px;"/><path d="M425.534,372.229l9.493,-15.071" style="fill:none;stroke:#000;stroke-width:2px;"/><path d="M569.8,264.959l-16.518,22.024" style="fill:none;stroke:#000;stroke-width:2px;"/><path d="M553.282,286.877l-13.447,25.835" style="fill:none;stroke:#000;stroke-width:2px;"/><path d="M539.835,312.817l-10.376,25.729" style="fill:none;stroke:#000;stroke-width:2px;"/><path d="M529.434,338.726l-7.969,23.473" style="fill:none;stroke:#000;stroke-width:2px;"/><path d="M521.356,362.199l18.866,-14.094" style="fill:none;stroke:#000;stroke-width:2px;"/><path d="M540.354,347.923l15.247,-17.958" style="fill:none;stroke:#000;stroke-width:2px;"/><path d="M555.736,329.83l11.52,-17.28" style="fill:none;stroke:#000;stroke-width:2px;"/><path d="M567.324,312.279l12.875,-21.413" style="fill:none;stroke:#000;stroke-width:2px;"/><path d="M570.035,265.103l-21.838,12.905" style="fill:none;stroke:#000;stroke-width:2px;"/><path d="M548.528,277.842l-24.981,22.334" style="fill:none;stroke:#000;stroke-width:2px;"/><path d="M523.52,300.223l-23.294,31.595" style="fill:none;stroke:#000;stroke-width:2px;"/><path d="M500.305,331.846l-8.978,28.969" style="fill:none;stroke:#000;stroke-width:2px;"/><path d="M491.242,361.07l-11.605,36.677" style="fill:none;stroke:#000;stroke-width:2px;"/><path d="M479.637,397.831l25.581,-7.454" style="fill:none;stroke:#000;stroke-width:2px;"/><path d="M505.218,390.462l17.11,-7.962" style="fill:none;stroke:#000;stroke-width:2px;"/><path d="M522.328,382.5l31.68,-29.223" style="fill:none;stroke:#000;stroke-width:2px;"/><path d="M554.008,353.192l20.753,-28.63" style="fill:none;stroke:#000;stroke-width:2px;"/><path d="M529.582,338.682l10.72,9.437" style="fill:none;stroke:#000;stroke-width:2px;"/><path d="M539.961,312.774l0.254,35.067" style="fill:none;stroke:#000;stroke-width:2px;"/><path d="M539.876,313.112l15.661,16.656" style="fill:none;stroke:#000;stroke-width:2px;"/><path d="M539.781,313.047l27.485,-0.813" style="fill:none;stroke:#000;stroke-width:2px;"/><path d="M553.676,287.189l13.446,24.776" style="fill:none;stroke:#000;stroke-width:2px;"/><path d="M553.732,286.892l26.391,3.761" style="fill:none;stroke:#000;stroke-width:2px;"/><path d="M569.819,265.163l10.249,25.581" style="fill:none;stroke:#000;stroke-width:2px;"/><path d="M577.645,252.461l-7.806,12.559" style="fill:none;stroke:#000;stroke-width:2px;"/><path d="M546.017,268.942l2.116,9.055" style="fill:none;stroke:#000;stroke-width:2px;"/><path d="M548.19,277.885l-32.527,12.875" style="fill:none;stroke:#000;stroke-width:2px;"/><path d="M515.748,290.929l7.793,9.064" style="fill:none;stroke:#000;stroke-width:2px;"/><path d="M500.321,331.182l15.028,-39.804" style="fill:none;stroke:#000;stroke-width:2px;"/><path d="M491.436,313.163l8.674,18.703" style="fill:none;stroke:#000;stroke-width:2px;"/><path d="M482.286,323.614l17.868,8.24" style="fill:none;stroke:#000;stroke-width:2px;"/><path d="M482.117,323.653l-2.435,74.117" style="fill:none;stroke:#000;stroke-width:2px;"/><path d="M479.937,397.879l28.053,1.026" style="fill:none;stroke:#000;stroke-width:2px;"/><path d="M505.229,390.505l2.77,8.414" style="fill:none;stroke:#000;stroke-width:2px;"/><path d="M505.425,390.379l22.101,-3.539" style="fill:none;stroke:#000;stroke-width:2px;"/><path d="M522.342,382.503l5.357,4.193" style="fill:none;stroke:#000;stroke-width:2px;"/><path d="M549.006,368.176l-26.146,14.271" style="fill:none;stroke:#000;stroke-width:2px;"/><path d="M553.98,353.161l-4.796,14.779" style="fill:none;stroke:#000;stroke-width:2px;"/><path d="M554.167,353.165l14.572,-9.497" style="fill:none;stroke:#000;stroke-width:2px;"/><path d="M479.828,397.883l1.995,11.233" style="fill:none;stroke:#000;stroke-width:2px;"/><path d="M434.358,358.238l34.835,59.716" style="fill:none;stroke:#000;stroke-width:2px;"/><path d="M479.781,397.625l-17.365,8.894" style="fill:none;stroke:#000;stroke-width:2px;"/><path d="M461.285,335.539l1.82,70.808" style="fill:none;stroke:#000;stroke-width:2px;"/><path d="M425.645,372.352l43.676,45.992" style="fill:none;stroke:#000;stroke-width:2px;"/><path d="M425.976,373.179l38.051,57.242" style="fill:none;stroke:#000;stroke-width:2px;"/><path d="M420.914,408.358l42.881,21.493" style="fill:none;stroke:#000;stroke-width:2px;"/><path d="M425.149,423.71l38.54,6.141" style="fill:none;stroke:#000;stroke-width:2px;"/><path d="M425.049,423.886l19.896,33.502" style="fill:none;stroke:#000;stroke-width:2px;"/><path d="M425.32,446.221l19.516,11.167" style="fill:none;stroke:#000;stroke-width:2px;"/><path d="M328.593,389.083l-10.408,-0.087" style="fill:none;stroke:#000;stroke-width:2px;"/><path d="M318.294,814.687l11.35,-0.254" style="fill:none;stroke:#000;stroke-width:2px;"/><path d="M329.814,814.348l17.703,-5.506" style="fill:none;stroke:#000;stroke-width:2px;"/><path d="M367.39,789.247l-7.133,8.854" style="fill:none;stroke:#000;stroke-width:2px;"/><path d="M360.118,798.268l-12.49,10.519" style="fill:none;stroke:#000;stroke-width:2px;"/><path d="M367.39,789.108l-14.322,7.134" style="fill:none;stroke:#000;stroke-width:2px;"/><path d="M353.081,796.232l6.926,2.008" style="fill:none;stroke:#000;stroke-width:2px;"/><path d="M352.938,796.269l-12.316,3.053" style="fill:none;stroke:#000;stroke-width:2px;"/><path d="M353.459,796.234l-5.725,12.282" style="fill:none;stroke:#000;stroke-width:2px;"/><path d="M340.483,799.322l-12.629,-0.243" style="fill:none;stroke:#000;stroke-width:2px;"/><path d="M340.726,799.391l6.869,9.368" style="fill:none;stroke:#000;stroke-width:2px;"/><path d="M340.726,799.46l-11.241,14.954" style="fill:none;stroke:#000;stroke-width:2px;"/><path d="M327.646,799.009l-7.494,-3.504" style="fill:none;stroke:#000;stroke-width:2px;"/><path d="M327.882,799.211l-9.575,15.439" style="fill:none;stroke:#000;stroke-width:2px;"/><path d="M319.937,795.394l0.104,-7.667" style="fill:none;stroke:#000;stroke-width:2px;"/><path d="M320.059,787.579l3.117,-7.454" style="fill:none;stroke:#000;stroke-width:2px;"/><path d="M323.176,780.057l5.15,-5.489" style="fill:none;stroke:#000;stroke-width:2px;"/><path d="M328.497,774.342l7.425,-0.833" style="fill:none;stroke:#000;stroke-width:2px;"/><path d="M336.138,773.377l12.386,-9.68" style="fill:none;stroke:#000;stroke-width:2px;"/><path d="M348.705,763.497l7.522,-14.366" style="fill:none;stroke:#000;stroke-width:2px;"/><path d="M359.073,729.954l-2.71,19.109" style="fill:none;stroke:#000;stroke-width:2px;"/><path d="M359.209,730.022l-10.233,22.904" style="fill:none;stroke:#000;stroke-width:2px;"/><path d="M348.976,752.994l-11.045,7.521" style="fill:none;stroke:#000;stroke-width:2px;"/><path d="M343.555,584.221l-25.205,-67.991" style="fill:none;stroke:#000;stroke-width:2px;"/><path d="M337.855,760.61l-10.408,3.079" style="fill:none;stroke:#000;stroke-width:2px;"/><path d="M327.26,763.692l-8.993,0.355" style="fill:none;stroke:#000;stroke-width:2px;"/><path d="M356.3,748.708l-7.319,4.283" style="fill:none;stroke:#000;stroke-width:2px;"/><path d="M349.595,752.158l-0.937,11.207" style="fill:none;stroke:#000;stroke-width:2px;"/><path d="M338.111,760.589l10.513,2.81" style="fill:none;stroke:#000;stroke-width:2px;"/><path d="M338.146,760.554l-2.047,12.768" style="fill:none;stroke:#000;stroke-width:2px;"/><path d="M327.668,763.712l0.728,10.582" style="fill:none;stroke:#000;stroke-width:2px;"/><path d="M318.255,764.106l5.074,15.83" style="fill:none;stroke:#000;stroke-width:2px;"/><path d="M319.729,795.679l-1.518,18.995" style="fill:none;stroke:#000;stroke-width:2px;"/><path d="M374.877,739.721l-7.544,49.367" style="fill:none;stroke:#000;stroke-width:2px;"/><path d="M375.025,739.866l-8.735,-23.691" style="fill:none;stroke:#000;stroke-width:2px;"/><path d="M366.287,715.936l0.135,-15.721" style="fill:none;stroke:#000;stroke-width:2px;"/><path d="M371.033,686.12l-4.574,13.977" style="fill:none;stroke:#000;stroke-width:2px;"/><path d="M380.944,659.693l-9.865,26.325" style="fill:none;stroke:#000;stroke-width:2px;"/><path d="M381.025,659.591l6.945,-33.288" style="fill:none;stroke:#000;stroke-width:2px;"/><path d="M388.055,626.133l0.847,-18.381" style="fill:none;stroke:#000;stroke-width:2px;"/><path d="M388.479,585.221l0.508,22.362" style="fill:none;stroke:#000;stroke-width:2px;"/><path d="M388.479,585.221l7.369,-1.271" style="fill:none;stroke:#000;stroke-width:2px;"/><path d="M396.116,583.926l15.775,-15.45" style="fill:none;stroke:#000;stroke-width:2px;"/><path d="M412.089,568.406l9.794,-30.175" style="fill:none;stroke:#000;stroke-width:2px;"/><path d="M421.876,538.173l0.488,-18.215" style="fill:none;stroke:#000;stroke-width:2px;"/><path d="M422.364,519.742l-1.951,-18.053" style="fill:none;stroke:#000;stroke-width:2px;"/><path d="M420.46,501.65l-12.282,11.774" style="fill:none;stroke:#000;stroke-width:2px;"/><path d="M408.262,513.424l-6.946,12.198" style="fill:none;stroke:#000;stroke-width:2px;"/><path d="M401.235,525.757l-9.378,22.552" style="fill:none;stroke:#000;stroke-width:2px;"/><path d="M391.8,548.422l-11.171,12.351" style="fill:none;stroke:#000;stroke-width:2px;"/><path d="M380.559,560.912l-3.747,0.486l2.461,24.022" style="fill:none;stroke:#000;stroke-width:2px;"/><path d="M379.372,585.329l-0.662,20.382" style="fill:none;stroke:#000;stroke-width:2px;"/><path d="M378.737,605.764l-2.647,25.623" style="fill:none;stroke:#000;stroke-width:2px;"/><path d="M376.09,631.281l-5.929,27.635" style="fill:none;stroke:#000;stroke-width:2px;"/><path d="M370.161,658.81l-8.153,38.54" style="fill:none;stroke:#000;stroke-width:2px;"/><path d="M362.076,697.55l0.677,20.532" style="fill:none;stroke:#000;stroke-width:2px;"/><path d="M362.753,718.285l12.062,21.413" style="fill:none;stroke:#000;stroke-width:2px;"/><path d="M362.821,718.15l3.32,-2.033" style="fill:none;stroke:#000;stroke-width:2px;"/><path d="M362.143,697.143l4.269,3.049" style="fill:none;stroke:#000;stroke-width:2px;"/><path d="M376.524,630.672l4.5,28.19" style="fill:none;stroke:#000;stroke-width:2px;"/><path d="M376.145,631.022l12.035,-5.313" style="fill:none;stroke:#000;stroke-width:2px;"/><path d="M376.254,631.401l-9.867,68.143" style="fill:none;stroke:#000;stroke-width:2px;"/><path d="M378.842,606.403l9.317,19.567" style="fill:none;stroke:#000;stroke-width:2px;"/><path d="M388.922,607.42l-10.334,-0.593" style="fill:none;stroke:#000;stroke-width:2px;"/><path d="M388.159,584.973l-9.232,21.769" style="fill:none;stroke:#000;stroke-width:2px;"/><path d="M379.52,585.82l8.555,-0.677" style="fill:none;stroke:#000;stroke-width:2px;"/><path d="M377.148,561.68l11.35,23.801" style="fill:none;stroke:#000;stroke-width:2px;"/><path d="M380.875,560.917l15.178,22.676" style="fill:none;stroke:#000;stroke-width:2px;"/><path d="M392.2,548.534l4.066,35.067" style="fill:none;stroke:#000;stroke-width:2px;"/><path d="M391.946,548.703l20.16,19.821" style="fill:none;stroke:#000;stroke-width:2px;"/><path d="M401.037,526.414l10.815,41.263" style="fill:none;stroke:#000;stroke-width:2px;"/><path d="M408.178,513.586l3.73,54.081" style="fill:none;stroke:#000;stroke-width:2px;"/><path d="M408.351,513.543l13.965,6.548" style="fill:none;stroke:#000;stroke-width:2px;"/><path d="M421.709,538.48l-13.314,-24.503" style="fill:none;stroke:#000;stroke-width:2px;"/><path d="M421.19,487.994l-0.762,13.722" style="fill:none;stroke:#000;stroke-width:2px;"/><path d="M328.808,389.312l13.553,27.423" style="fill:none;stroke:#000;stroke-width:2px;"/><path d="M318.326,389.101l24.035,27.74" style="fill:none;stroke:#000;stroke-width:2px;"/><path d="M342.149,416.63l-23.929,-2.965" style="fill:none;stroke:#000;stroke-width:2px;"/><path d="M377.014,437.413l-0.902,11.991" style="fill:none;stroke:#000;stroke-width:2px;"/><path d="M376.167,449.458l-6.122,22.169" style="fill:none;stroke:#000;stroke-width:2px;"/><path d="M370.092,471.443l-13.778,46.175" style="fill:none;stroke:#000;stroke-width:2px;"/><path d="M356.344,517.476l-12.706,66.837" style="fill:none;stroke:#000;stroke-width:2px;"/><path d="M343.638,584.313l-8.205,30.573" style="fill:none;stroke:#000;stroke-width:2px;"/><path d="M335.385,615.146l-10.679,15.776" style="fill:none;stroke:#000;stroke-width:2px;"/><path d="M324.579,631.088l-6.329,1.111" style="fill:none;stroke:#000;stroke-width:2px;"/><path d="M341.816,416.505l34.348,33.654" style="fill:none;stroke:#000;stroke-width:2px;"/><path d="M342.326,416.32l-24.141,32.399" style="fill:none;stroke:#000;stroke-width:2px;"/><path d="M356.514,517.329l-13.976,-101.221" style="fill:none;stroke:#000;stroke-width:2px;"/><path d="M318.431,448.202l37.891,68.529" style="fill:none;stroke:#000;stroke-width:2px;"/><path d="M356.104,516.169l-37.731,-0" style="fill:none;stroke:#000;stroke-width:2px;"/><path d="M334.926,615.224l-16.627,-98.892" style="fill:none;stroke:#000;stroke-width:2px;"/><path d="M318.264,516.282l6.286,114.579" style="fill:none;stroke:#000;stroke-width:2px;"/><path d="M191.874,28.096l-30.033,-4.066" style="fill:none;stroke:#000;stroke-width:2px;"/><path d="M159.889,36.986l31.985,-8.945" style="fill:none;stroke:#000;stroke-width:2px;"/><path d="M161.678,23.976l-2.06,13.173" style="fill:none;stroke:#000;stroke-width:2px;"/><path d="M161.678,24.138l-24.395,11.168" style="fill:none;stroke:#000;stroke-width:2px;"/><path d="M159.727,36.932l-12.631,13.661" style="fill:none;stroke:#000;stroke-width:2px;"/><path d="M137.121,35.36l9.92,15.287" style="fill:none;stroke:#000;stroke-width:2px;"/><path d="M137.251,35.002l-13.897,28.621" style="fill:none;stroke:#000;stroke-width:2px;"/><path d="M144.922,67.777l-21.631,-4.012" style="fill:none;stroke:#000;stroke-width:2px;"/><path d="M145.03,67.831l2.006,-17.131" style="fill:none;stroke:#000;stroke-width:2px;"/><path d="M144.889,67.771l14.231,43.285" style="fill:none;stroke:#000;stroke-width:2px;"/><path d="M123.205,63.875l35.915,47.35" style="fill:none;stroke:#000;stroke-width:2px;"/><path d="M126.085,104.872l-2.88,-40.997" style="fill:none;stroke:#000;stroke-width:2px;"/><path d="M125.915,104.788l32.95,6.437" style="fill:none;stroke:#000;stroke-width:2px;"/><path d="M158.794,111.241l-15.755,33.12" style="fill:none;stroke:#000;stroke-width:2px;"/><path d="M126.183,105.058l16.771,39.303" style="fill:none;stroke:#000;stroke-width:2px;"/><path d="M159.001,110.851l32.823,56.778" style="fill:none;stroke:#000;stroke-width:2px;"/><path d="M191.824,167.497l-48.837,-23.426" style="fill:none;stroke:#000;stroke-width:2px;"/><path d="M142.854,144.203l31.897,55.058" style="fill:none;stroke:#000;stroke-width:2px;"/><path d="M191.824,167.497l-17.338,31.764" style="fill:none;stroke:#000;stroke-width:2px;"/><path d="M191.633,167.198l39.706,61.544" style="fill:none;stroke:#000;stroke-width:2px;"/><path d="M231.339,228.609l-56.779,-29.646" style="fill:none;stroke:#000;stroke-width:2px;"/><path d="M174.391,199.234l32.294,56.858" style="fill:none;stroke:#000;stroke-width:2px;"/><path d="M231.355,228.669l-24.651,27.422" style="fill:none;stroke:#000;stroke-width:2px;"/><path d="M231.287,228.713l2.674,83.207" style="fill:none;stroke:#000;stroke-width:2px;"/><path d="M233.946,312.112l-27.431,-56.001" style="fill:none;stroke:#000;stroke-width:2px;"/><path d="M231.177,228.532l44.668,81.066" style="fill:none;stroke:#000;stroke-width:2px;"/><path d="M233.938,312.273l41.742,-2.711" style="fill:none;stroke:#000;stroke-width:2px;"/><path d="M275.553,309.266l17.735,52.94" style="fill:none;stroke:#000;stroke-width:2px;"/><path d="M233.862,312.31l59.691,49.764" style="fill:none;stroke:#000;stroke-width:2px;"/><path d="M233.994,312.31l23.03,76.499" style="fill:none;stroke:#000;stroke-width:2px;"/><path d="M293.42,362.074l-36.661,26.735" style="fill:none;stroke:#000;stroke-width:2px;"/><path d="M293.26,362.293l0.992,54.429" style="fill:none;stroke:#000;stroke-width:2px;"/><path d="M256.698,388.929l37.554,27.628" style="fill:none;stroke:#000;stroke-width:2px;"/><path d="M256.863,388.763l2.647,48.805" style="fill:none;stroke:#000;stroke-width:2px;"/><path d="M259.401,437.235l34.851,-20.513" style="fill:none;stroke:#000;stroke-width:2px;"/><path d="M293.971,395.406c0.932,-0 13.637,-6.268 13.637,-6.268" style="fill:none;stroke:#000;stroke-width:2px;"/><path d="M257.644,400.466l-22.295,-22.618" style="fill:none;stroke:#000;stroke-width:2px;"/><path d="M235.408,377.635l-34.015,-20.515" style="fill:none;stroke:#000;stroke-width:2px;"/><path d="M201.356,357.089l-26.554,-21.744" style="fill:none;stroke:#000;stroke-width:2px;"/><path d="M174.688,335.246l-20.112,-11.71" style="fill:none;stroke:#000;stroke-width:2px;"/><path d="M154.427,323.437l-9.159,-10.304" style="fill:none;stroke:#000;stroke-width:2px;"/><path d="M145.014,313.012l-24.246,-22.235" style="fill:none;stroke:#000;stroke-width:2px;"/><path d="M120.662,290.777l-30.176,-21.918" style="fill:none;stroke:#000;stroke-width:2px;"/><path d="M90.495,268.792l-31.876,-16.643" style="fill:none;stroke:#000;stroke-width:2px;"/><path d="M58.523,252.17l-2.385,38.707" style="fill:none;stroke:#000;stroke-width:2px;"/><path d="M56.145,290.793l5.691,34.279" style="fill:none;stroke:#000;stroke-width:2px;"/><path d="M61.836,324.94l5.691,18.793" style="fill:none;stroke:#000;stroke-width:2px;"/><path d="M67.527,343.601l19.72,24.485" style="fill:none;stroke:#000;stroke-width:2px;"/><path d="M87.148,367.858l21.507,18.86" style="fill:none;stroke:#000;stroke-width:2px;"/><path d="M108.724,386.778l19.567,12.113" style="fill:none;stroke:#000;stroke-width:2px;"/><path d="M128.291,398.891l26.004,10.164" style="fill:none;stroke:#000;stroke-width:2px;"/><path d="M154.396,409.057l12.577,9.238" style="fill:none;stroke:#000;stroke-width:2px;"/><path d="M166.998,418.277l5.4,11.647" style="fill:none;stroke:#000;stroke-width:2px;"/><path d="M172.186,429.924l19.058,27.317" style="fill:none;stroke:#000;stroke-width:2px;"/><path d="M191.208,457.2l23.86,30.746" style="fill:none;stroke:#000;stroke-width:2px;"/><path d="M214.991,487.854l-3.74,-41.634" style="fill:none;stroke:#000;stroke-width:2px;"/><path d="M211.251,446.058l0.379,-22.39" style="fill:none;stroke:#000;stroke-width:2px;"/><path d="M211.63,423.668l4.12,-15.07" style="fill:none;stroke:#000;stroke-width:2px;"/><path d="M215.794,408.375l-2.06,-25.371" style="fill:none;stroke:#000;stroke-width:2px;"/><path d="M213.705,382.721l-2.832,-10.27" style="fill:none;stroke:#000;stroke-width:2px;"/><path d="M210.873,372.229l-9.492,-15.071" style="fill:none;stroke:#000;stroke-width:2px;"/><path d="M66.608,264.959l16.518,22.024" style="fill:none;stroke:#000;stroke-width:2px;"/><path d="M83.126,286.877l13.447,25.835" style="fill:none;stroke:#000;stroke-width:2px;"/><path d="M96.573,312.817l10.376,25.729" style="fill:none;stroke:#000;stroke-width:2px;"/><path d="M106.974,338.726l7.969,23.473" style="fill:none;stroke:#000;stroke-width:2px;"/><path d="M115.052,362.199l-18.866,-14.094" style="fill:none;stroke:#000;stroke-width:2px;"/><path d="M96.054,347.923l-15.247,-17.958" style="fill:none;stroke:#000;stroke-width:2px;"/><path d="M80.671,329.83l-11.519,-17.28" style="fill:none;stroke:#000;stroke-width:2px;"/><path d="M69.084,312.279l-12.875,-21.413" style="fill:none;stroke:#000;stroke-width:2px;"/><path d="M66.373,265.103l21.838,12.905" style="fill:none;stroke:#000;stroke-width:2px;"/><path d="M87.88,277.842l24.981,22.334" style="fill:none;stroke:#000;stroke-width:2px;"/><path d="M112.888,300.223l23.294,31.595" style="fill:none;stroke:#000;stroke-width:2px;"/><path d="M136.103,331.846l8.978,28.969" style="fill:none;stroke:#000;stroke-width:2px;"/><path d="M145.166,361.07l11.605,36.677" style="fill:none;stroke:#000;stroke-width:2px;"/><path d="M156.771,397.831l-25.581,-7.454" style="fill:none;stroke:#000;stroke-width:2px;"/><path d="M131.19,390.462l-17.111,-7.962" style="fill:none;stroke:#000;stroke-width:2px;"/><path d="M114.079,382.5l-31.679,-29.223" style="fill:none;stroke:#000;stroke-width:2px;"/><path d="M82.4,353.192l-20.753,-28.63" style="fill:none;stroke:#000;stroke-width:2px;"/><path d="M106.826,338.682l-10.72,9.437" style="fill:none;stroke:#000;stroke-width:2px;"/><path d="M96.447,312.774l-0.254,35.067" style="fill:none;stroke:#000;stroke-width:2px;"/><path d="M96.532,313.112l-15.661,16.656" style="fill:none;stroke:#000;stroke-width:2px;"/><path d="M96.627,313.047l-27.485,-0.813" style="fill:none;stroke:#000;stroke-width:2px;"/><path d="M82.732,287.189l-13.447,24.776" style="fill:none;stroke:#000;stroke-width:2px;"/><path d="M82.675,286.892l-26.39,3.761" style="fill:none;stroke:#000;stroke-width:2px;"/><path d="M66.589,265.163l-10.249,25.581" style="fill:none;stroke:#000;stroke-width:2px;"/><path d="M58.763,252.461l7.806,12.559" style="fill:none;stroke:#000;stroke-width:2px;"/><path d="M90.391,268.942l-2.116,9.055" style="fill:none;stroke:#000;stroke-width:2px;"/><path d="M88.218,277.885l32.527,12.875" style="fill:none;stroke:#000;stroke-width:2px;"/><path d="M120.66,290.929l-7.793,9.064" style="fill:none;stroke:#000;stroke-width:2px;"/><path d="M136.087,331.182l-15.029,-39.804" style="fill:none;stroke:#000;stroke-width:2px;"/><path d="M144.972,313.163l-8.674,18.703" style="fill:none;stroke:#000;stroke-width:2px;"/><path d="M154.121,323.614l-17.867,8.24" style="fill:none;stroke:#000;stroke-width:2px;"/><path d="M154.291,323.653l2.435,74.117" style="fill:none;stroke:#000;stroke-width:2px;"/><path d="M156.471,397.879l-28.053,1.026" style="fill:none;stroke:#000;stroke-width:2px;"/><path d="M131.179,390.505l-2.77,8.414" style="fill:none;stroke:#000;stroke-width:2px;"/><path d="M130.983,390.379l-22.101,-3.539" style="fill:none;stroke:#000;stroke-width:2px;"/><path d="M114.066,382.503l-5.357,4.193" style="fill:none;stroke:#000;stroke-width:2px;"/><path d="M87.401,368.176l26.147,14.271" style="fill:none;stroke:#000;stroke-width:2px;"/><path d="M82.428,353.161l4.796,14.779" style="fill:none;stroke:#000;stroke-width:2px;"/><path d="M82.241,353.165l-14.572,-9.497" style="fill:none;stroke:#000;stroke-width:2px;"/><path d="M156.58,397.883l-1.995,11.233" style="fill:none;stroke:#000;stroke-width:2px;"/><path d="M202.05,358.238l-34.835,59.716" style="fill:none;stroke:#000;stroke-width:2px;"/><path d="M156.627,397.625l17.365,8.894" style="fill:none;stroke:#000;stroke-width:2px;"/><path d="M175.123,335.539l-1.82,70.808" style="fill:none;stroke:#000;stroke-width:2px;"/><path d="M210.763,372.352l-43.676,45.992" style="fill:none;stroke:#000;stroke-width:2px;"/><path d="M210.432,373.179l-38.051,57.242" style="fill:none;stroke:#000;stroke-width:2px;"/><path d="M215.494,408.358l-42.881,21.493" style="fill:none;stroke:#000;stroke-width:2px;"/><path d="M211.259,423.71l-38.54,6.141" style="fill:none;stroke:#000;stroke-width:2px;"/><path d="M211.359,423.886l-19.896,33.502" style="fill:none;stroke:#000;stroke-width:2px;"/><path d="M211.088,446.221l-19.516,11.167" style="fill:none;stroke:#000;stroke-width:2px;"/><path d="M307.815,389.083l10.408,-0.087" style="fill:none;stroke:#000;stroke-width:2px;"/><path d="M318.114,814.687l-11.35,-0.254" style="fill:none;stroke:#000;stroke-width:2px;"/><path d="M306.594,814.348l-17.703,-5.506" style="fill:none;stroke:#000;stroke-width:2px;"/><path d="M269.018,789.247l7.133,8.854" style="fill:none;stroke:#000;stroke-width:2px;"/><path d="M276.29,798.268l12.49,10.519" style="fill:none;stroke:#000;stroke-width:2px;"/><path d="M269.018,789.108l14.322,7.134" style="fill:none;stroke:#000;stroke-width:2px;"/><path d="M283.327,796.232l-6.926,2.008" style="fill:none;stroke:#000;stroke-width:2px;"/><path d="M283.469,796.269l12.317,3.053" style="fill:none;stroke:#000;stroke-width:2px;"/><path d="M282.949,796.234l5.725,12.282" style="fill:none;stroke:#000;stroke-width:2px;"/><path d="M295.925,799.322l12.629,-0.243" style="fill:none;stroke:#000;stroke-width:2px;"/><path d="M295.682,799.391l-6.87,9.368" style="fill:none;stroke:#000;stroke-width:2px;"/><path d="M295.682,799.46l11.241,14.954" style="fill:none;stroke:#000;stroke-width:2px;"/><path d="M308.762,799.009l7.494,-3.504" style="fill:none;stroke:#000;stroke-width:2px;"/><path d="M308.526,799.211l9.575,15.439" style="fill:none;stroke:#000;stroke-width:2px;"/><path d="M316.471,795.394l-0.104,-7.667" style="fill:none;stroke:#000;stroke-width:2px;"/><path d="M316.349,787.579l-3.117,-7.454" style="fill:none;stroke:#000;stroke-width:2px;"/><path d="M313.232,780.057l-5.15,-5.489" style="fill:none;stroke:#000;stroke-width:2px;"/><path d="M307.911,774.342l-7.425,-0.833" style="fill:none;stroke:#000;stroke-width:2px;"/><path d="M300.27,773.377l-12.386,-9.68" style="fill:none;stroke:#000;stroke-width:2px;"/><path d="M287.703,763.497l-7.522,-14.366" style="fill:none;stroke:#000;stroke-width:2px;"/><path d="M277.335,729.954l2.71,19.109" style="fill:none;stroke:#000;stroke-width:2px;"/><path d="M277.199,730.022l10.233,22.904" style="fill:none;stroke:#000;stroke-width:2px;"/><path d="M287.432,752.994l11.045,7.521" style="fill:none;stroke:#000;stroke-width:2px;"/><path d="M292.853,584.221l25.205,-67.991" style="fill:none;stroke:#000;stroke-width:2px;"/><path d="M298.553,760.61l10.408,3.079" style="fill:none;stroke:#000;stroke-width:2px;"/><path d="M309.148,763.692l8.993,0.355" style="fill:none;stroke:#000;stroke-width:2px;"/><path d="M280.108,748.708l7.319,4.283" style="fill:none;stroke:#000;stroke-width:2px;"/><path d="M286.813,752.158l0.937,11.207" style="fill:none;stroke:#000;stroke-width:2px;"/><path d="M298.297,760.589l-10.513,2.81" style="fill:none;stroke:#000;stroke-width:2px;"/><path d="M298.262,760.554l2.047,12.768" style="fill:none;stroke:#000;stroke-width:2px;"/><path d="M308.74,763.712l-0.728,10.582" style="fill:none;stroke:#000;stroke-width:2px;"/><path d="M318.153,764.106l-5.074,15.83" style="fill:none;stroke:#000;stroke-width:2px;"/><path d="M316.679,795.679l1.518,18.995" style="fill:none;stroke:#000;stroke-width:2px;"/><path d="M261.531,739.721l7.544,49.367" style="fill:none;stroke:#000;stroke-width:2px;"/><path d="M261.383,739.866l8.735,-23.691" style="fill:none;stroke:#000;stroke-width:2px;"/><path d="M270.121,715.936l-0.135,-15.721" style="fill:none;stroke:#000;stroke-width:2px;"/><path d="M265.375,686.12l4.574,13.977" style="fill:none;stroke:#000;stroke-width:2px;"/><path d="M255.464,659.693l9.865,26.325" style="fill:none;stroke:#000;stroke-width:2px;"/><path d="M255.383,659.591l-6.945,-33.288" style="fill:none;stroke:#000;stroke-width:2px;"/><path d="M248.353,626.133l-0.847,-18.381" style="fill:none;stroke:#000;stroke-width:2px;"/><path d="M247.929,585.221l-0.508,22.362" style="fill:none;stroke:#000;stroke-width:2px;"/><path d="M247.929,585.221l-7.369,-1.271" style="fill:none;stroke:#000;stroke-width:2px;"/><path d="M240.292,583.926l-15.775,-15.45" style="fill:none;stroke:#000;stroke-width:2px;"/><path d="M224.319,568.406l-9.794,-30.175" style="fill:none;stroke:#000;stroke-width:2px;"/><path d="M214.532,538.173l-0.488,-18.215" style="fill:none;stroke:#000;stroke-width:2px;"/><path d="M214.044,519.742l1.951,-18.053" style="fill:none;stroke:#000;stroke-width:2px;"/><path d="M215.948,501.65l12.282,11.774" style="fill:none;stroke:#000;stroke-width:2px;"/><path d="M228.146,513.424l6.945,12.198" style="fill:none;stroke:#000;stroke-width:2px;"/><path d="M235.173,525.757l9.378,22.552" style="fill:none;stroke:#000;stroke-width:2px;"/><path d="M244.608,548.422l11.171,12.351" style="fill:none;stroke:#000;stroke-width:2px;"/><path d="M255.849,560.912l3.747,0.486l-2.461,24.022" style="fill:none;stroke:#000;stroke-width:2px;"/><path d="M257.036,585.329l0.661,20.382" style="fill:none;stroke:#000;stroke-width:2px;"/><path d="M257.671,605.764l2.647,25.623" style="fill:none;stroke:#000;stroke-width:2px;"/><path d="M260.318,631.281l5.929,27.635" style="fill:none;stroke:#000;stroke-width:2px;"/><path d="M266.247,658.81l8.153,38.54" style="fill:none;stroke:#000;stroke-width:2px;"/><path d="M274.332,697.55l-0.677,20.532" style="fill:none;stroke:#000;stroke-width:2px;"/><path d="M273.655,718.285l-12.062,21.413" style="fill:none;stroke:#000;stroke-width:2px;"/><path d="M273.587,718.15l-3.32,-2.033" style="fill:none;stroke:#000;stroke-width:2px;"/><path d="M274.265,697.143l-4.27,3.049" style="fill:none;stroke:#000;stroke-width:2px;"/><path d="M259.884,630.672l-4.5,28.19" style="fill:none;stroke:#000;stroke-width:2px;"/><path d="M260.263,631.022l-12.035,-5.313" style="fill:none;stroke:#000;stroke-width:2px;"/><path d="M260.154,631.401l9.867,68.143" style="fill:none;stroke:#000;stroke-width:2px;"/><path d="M257.566,606.403l-9.317,19.567" style="fill:none;stroke:#000;stroke-width:2px;"/><path d="M247.486,607.42l10.334,-0.593" style="fill:none;stroke:#000;stroke-width:2px;"/><path d="M248.249,584.973l9.232,21.769" style="fill:none;stroke:#000;stroke-width:2px;"/><path d="M256.888,585.82l-8.555,-0.677" style="fill:none;stroke:#000;stroke-width:2px;"/><path d="M259.26,561.68l-11.35,23.801" style="fill:none;stroke:#000;stroke-width:2px;"/><path d="M255.533,560.917l-15.178,22.676" style="fill:none;stroke:#000;stroke-width:2px;"/><path d="M244.208,548.534l-4.066,35.067" style="fill:none;stroke:#000;stroke-width:2px;"/><path d="M244.462,548.703l-20.16,19.821" style="fill:none;stroke:#000;stroke-width:2px;"/><path d="M235.371,526.414l-10.815,41.263" style="fill:none;stroke:#000;stroke-width:2px;"/><path d="M228.23,513.586l-3.73,54.081" style="fill:none;stroke:#000;stroke-width:2px;"/><path d="M228.057,513.543l-13.965,6.548" style="fill:none;stroke:#000;stroke-width:2px;"/><path d="M214.699,538.48l13.314,-24.503" style="fill:none;stroke:#000;stroke-width:2px;"/><path d="M215.218,487.994l0.762,13.722" style="fill:none;stroke:#000;stroke-width:2px;"/><path d="M307.6,389.312l-13.553,27.423" style="fill:none;stroke:#000;stroke-width:2px;"/><path d="M318.082,389.101l-24.035,27.74" style="fill:none;stroke:#000;stroke-width:2px;"/><path d="M294.259,416.63l23.929,-2.965" style="fill:none;stroke:#000;stroke-width:2px;"/><path d="M259.394,437.413l0.902,11.991" style="fill:none;stroke:#000;stroke-width:2px;"/><path d="M260.241,449.458l6.122,22.169" style="fill:none;stroke:#000;stroke-width:2px;"/><path d="M266.316,471.443l13.778,46.175" style="fill:none;stroke:#000;stroke-width:2px;"/><path d="M280.064,517.476l12.706,66.837" style="fill:none;stroke:#000;stroke-width:2px;"/><path d="M292.77,584.313l8.205,30.573" style="fill:none;stroke:#000;stroke-width:2px;"/><path d="M301.023,615.146l10.679,15.776" style="fill:none;stroke:#000;stroke-width:2px;"/><path d="M311.829,631.088l6.329,1.111" style="fill:none;stroke:#000;stroke-width:2px;"/><path d="M294.592,416.505l-34.348,33.654" style="fill:none;stroke:#000;stroke-width:2px;"/><path d="M294.082,416.32l24.141,32.399" style="fill:none;stroke:#000;stroke-width:2px;"/><path d="M279.894,517.329l13.976,-101.221" style="fill:none;stroke:#000;stroke-width:2px;"/><path d="M317.977,448.202l-37.891,68.529" style="fill:none;stroke:#000;stroke-width:2px;"/><path d="M280.304,516.169l37.731,-0" style="fill:none;stroke:#000;stroke-width:2px;"/><path d="M301.482,615.224l16.627,-98.892" style="fill:none;stroke:#000;stroke-width:2px;"/><path d="M318.144,516.282l-6.286,114.579" style="fill:none;stroke:#000;stroke-width:2px;"/></g></svg>