<?xml version="1.0" encoding="utf-8"?>
<!-- Generator: Adobe Illustrator 16.0.0, SVG Export Plug-In . SVG Version: 6.00 Build 0)  -->
<!DOCTYPE svg PUBLIC "-//W3C//DTD SVG 1.1//EN" "http://www.w3.org/Graphics/SVG/1.1/DTD/svg11.dtd">
<svg version="1.1" xmlns="http://www.w3.org/2000/svg" xmlns:xlink="http://www.w3.org/1999/xlink" x="0px" y="0px" width="47px"
	 height="31px" viewBox="0 0 47 31" enable-background="new 0 0 47 31" xml:space="preserve">
<g id="Calque_1">
	<g>
		<path fill="#FFFFFF" d="M46.482,27.748c0,1.523-0.908,2.76-2.03,2.76H2.885c-1.122,0-2.031-1.236-2.031-2.76V3.278
			c0-1.524,0.91-2.76,2.031-2.76h41.567c1.122,0,2.03,1.236,2.03,2.76V27.748z"/>
		<path fill="#D5D5D5" d="M44.452,31.025H2.885c-1.405,0-2.548-1.471-2.548-3.277V3.278C0.337,1.471,1.48,0,2.885,0h41.567
			C45.856,0,47,1.471,47,3.278v24.47C47,29.555,45.856,31.025,44.452,31.025z M2.885,1.034c-0.82,0-1.514,1.027-1.514,2.244v24.47
			c0,1.216,0.694,2.242,1.514,2.242h41.567c0.821,0,1.515-1.026,1.515-2.242V3.278c0-1.216-0.693-2.244-1.515-2.244H2.885z"/>
	</g>
	<g>
		<path fill="#1F1F1F" d="M4.329,6.996h2.654c1.053,0,1.906,0.526,1.906,1.938c0,0.969-0.432,1.717-1.253,1.843v0.021
			c0.748,0.074,1.138,0.485,1.18,1.538c0.01,0.484,0.021,1.074,0.042,1.527c0.021,0.369,0.2,0.547,0.358,0.652H7.857
			c-0.116-0.137-0.168-0.368-0.2-0.663c-0.042-0.453-0.032-0.874-0.053-1.422c-0.021-0.821-0.273-1.179-1.095-1.179H5.529v3.264
			h-1.2V6.996L4.329,6.996z M6.488,10.344c0.769,0,1.201-0.463,1.201-1.222c0-0.8-0.348-1.222-1.137-1.222H5.529v2.443H6.488z"/>
		<path fill="#1F1F1F" d="M10.89,11.829v0.327c0,0.758,0.095,1.727,0.948,1.727c0.811,0,0.905-0.926,0.905-1.264h1.075
			c0,1.253-0.758,2.044-1.991,2.044c-0.927,0-2.075-0.274-2.075-2.896c0-1.485,0.316-3.065,2.096-3.065
			c1.58,0,2.001,0.948,2.001,2.528v0.6H10.89z M12.712,11.05v-0.306c0-0.716-0.231-1.264-0.874-1.264
			c-0.727,0-0.948,0.716-0.948,1.454v0.116H12.712L12.712,11.05z"/>
		<path fill="#1F1F1F" d="M14.281,8.849h0.779V7.237h1.137v1.612h0.928v0.842h-0.928v3.381c0,0.442,0.127,0.601,0.517,0.601
			c0.169,0,0.306-0.011,0.411-0.031v0.842c-0.242,0.063-0.559,0.094-0.917,0.094c-0.769,0-1.147-0.209-1.147-1.368V9.691h-0.779
			V8.849z"/>
		<path fill="#1F1F1F" d="M17.715,8.849h1.137v0.884h0.021c0.252-0.632,0.674-1.032,1.316-1.032c0.126,0,0.199,0.021,0.273,0.042
			v1.159c-0.084-0.021-0.285-0.063-0.475-0.063c-0.516,0-1.137,0.232-1.137,1.285v3.391h-1.137V8.849L17.715,8.849z"/>
		<path fill="#1F1F1F" d="M24.686,13.334c0,0.211,0.126,0.4,0.296,0.4c0.073,0,0.146-0.01,0.188-0.031v0.737
			c-0.138,0.063-0.337,0.136-0.558,0.136c-0.506,0-0.927-0.199-0.958-0.746h-0.021c-0.306,0.558-0.748,0.832-1.412,0.832
			c-0.905,0-1.474-0.506-1.474-1.591c0-1.264,0.548-1.527,1.316-1.78l0.885-0.242c0.41-0.116,0.663-0.232,0.663-0.727
			c0-0.516-0.179-0.843-0.779-0.843c-0.758,0-0.863,0.537-0.863,1.085h-1.074c0-1.201,0.495-1.864,1.99-1.864
			c1,0,1.801,0.39,1.801,1.391V13.334z M23.611,11.523c-0.295,0.232-0.926,0.369-1.264,0.527c-0.326,0.158-0.463,0.495-0.463,0.916
			c0,0.474,0.231,0.854,0.705,0.854c0.685,0,1.021-0.516,1.021-1.349V11.523z"/>
		<path fill="#1F1F1F" d="M25.896,6.911h1.138v1.138h-1.138V6.911z M25.896,8.849h1.138v5.665h-1.138V8.849z"/>
		<path fill="#1F1F1F" d="M27.677,8.849h0.779V7.237h1.137v1.612h0.927v0.842h-0.927v3.381c0,0.442,0.127,0.601,0.516,0.601
			c0.17,0,0.306-0.011,0.411-0.031v0.842c-0.241,0.063-0.558,0.094-0.916,0.094c-0.769,0-1.147-0.209-1.147-1.368V9.691h-0.779
			V8.849z"/>
		<path fill="#1F1F1F" d="M34.616,11.829v0.327c0,0.758,0.096,1.727,0.948,1.727c0.811,0,0.906-0.926,0.906-1.264h1.073
			c0,1.253-0.759,2.044-1.99,2.044c-0.926,0-2.074-0.274-2.074-2.896c0-1.485,0.315-3.065,2.096-3.065
			c1.579,0,2.001,0.948,2.001,2.528v0.6H34.616z M36.438,11.05v-0.306c0-0.716-0.23-1.264-0.873-1.264
			c-0.727,0-0.948,0.716-0.948,1.454v0.116H36.438L36.438,11.05z"/>
		<path fill="#1F1F1F" d="M38.513,8.849h1.074v0.664h0.032c0.283-0.506,0.821-0.812,1.453-0.812c0.863,0,1.41,0.39,1.41,1.538v4.275
			h-1.137v-3.885c0-0.737-0.221-1.022-0.79-1.022c-0.463,0-0.905,0.369-0.905,1.106v3.801h-1.138V8.849z"/>
		<path fill="#0071AB" d="M6.72,18.141h1.074v0.664h0.032c0.284-0.506,0.821-0.811,1.358-0.811c0.811,0,1.147,0.389,1.316,0.863
			c0.326-0.549,0.748-0.863,1.432-0.863c0.8,0,1.379,0.41,1.379,1.506v4.307h-1.137v-3.885c0-0.738-0.221-1.023-0.685-1.023
			s-0.905,0.369-0.905,1.107v3.801H9.447v-3.885c0-0.738-0.221-1.023-0.695-1.023c-0.453,0-0.896,0.369-0.896,1.107v3.801H6.72
			V18.141L6.72,18.141z"/>
		<path fill="#0071AB" d="M18.178,22.627c0,0.211,0.126,0.4,0.295,0.4c0.073,0,0.147-0.01,0.189-0.031v0.736
			c-0.137,0.064-0.338,0.137-0.559,0.137c-0.506,0-0.927-0.199-0.958-0.748h-0.021c-0.307,0.559-0.748,0.834-1.412,0.834
			c-0.905,0-1.474-0.506-1.474-1.592c0-1.264,0.548-1.527,1.316-1.779l0.884-0.242c0.411-0.115,0.664-0.232,0.664-0.727
			c0-0.516-0.18-0.842-0.779-0.842c-0.759,0-0.864,0.537-0.864,1.084h-1.074c0-1.201,0.495-1.863,1.991-1.863
			c1,0,1.801,0.389,1.801,1.389V22.627L18.178,22.627z M17.104,20.816c-0.295,0.23-0.927,0.367-1.264,0.527
			c-0.327,0.156-0.464,0.494-0.464,0.914c0,0.475,0.232,0.854,0.706,0.854c0.685,0,1.021-0.516,1.021-1.348V20.816z"/>
		<path fill="#0071AB" d="M20.473,24.291c0,0.348,0.316,0.674,0.822,0.674c0.59,0,0.959-0.41,0.959-1.063v-0.918h-0.021
			c-0.211,0.496-0.738,0.779-1.285,0.779c-1.327,0-1.695-1.305-1.695-2.852c0-1.244,0.189-2.918,1.801-2.918
			c0.664,0,1.137,0.432,1.242,0.842h0.021v-0.695h1.074v5.393c0,1.379-0.59,2.211-2.117,2.211c-1.685,0-1.875-0.99-1.875-1.453
			H20.473z M21.273,22.859c0.885,0,0.979-1.117,0.979-2.012c0-0.926-0.116-1.949-0.905-1.949c-0.822,0-0.959,0.844-0.959,1.896
			C20.389,21.764,20.432,22.859,21.273,22.859z"/>
		<path fill="#0071AB" d="M28.119,22.627c0,0.211,0.126,0.4,0.295,0.4c0.073,0,0.146-0.01,0.189-0.031v0.736
			c-0.137,0.064-0.338,0.137-0.559,0.137c-0.505,0-0.927-0.199-0.957-0.748h-0.022c-0.305,0.559-0.747,0.834-1.41,0.834
			c-0.906,0-1.475-0.506-1.475-1.592c0-1.264,0.547-1.527,1.316-1.779l0.884-0.242c0.41-0.115,0.664-0.232,0.664-0.727
			c0-0.516-0.179-0.842-0.779-0.842c-0.759,0-0.864,0.537-0.864,1.084h-1.073c0-1.201,0.494-1.863,1.99-1.863
			c1,0,1.801,0.389,1.801,1.389V22.627L28.119,22.627z M27.045,20.816c-0.296,0.23-0.928,0.367-1.264,0.527
			c-0.326,0.156-0.464,0.494-0.464,0.914c0,0.475,0.231,0.854,0.706,0.854c0.684,0,1.021-0.516,1.021-1.348V20.816z"/>
		<path fill="#0071AB" d="M31.721,19.795v-0.148c0-0.453-0.158-0.873-0.749-0.873c-0.452,0-0.81,0.209-0.81,0.736
			c0,0.443,0.2,0.621,0.801,0.832l0.726,0.254c0.843,0.283,1.232,0.736,1.232,1.631c0,1.211-0.885,1.729-2.033,1.729
			c-1.432,0-1.863-0.664-1.863-1.76v-0.211h1.011v0.18c0,0.652,0.232,1.012,0.886,1.012c0.62,0,0.926-0.316,0.926-0.834
			c0-0.42-0.222-0.693-0.62-0.83l-0.928-0.328c-0.853-0.295-1.212-0.727-1.212-1.631c0-1.064,0.77-1.561,1.938-1.561
			c1.442,0,1.769,0.844,1.769,1.549v0.254H31.721L31.721,19.795z"/>
		<path fill="#0071AB" d="M33.815,16.203h1.139v1.139h-1.139V16.203z M33.815,18.141h1.139v5.666h-1.139V18.141z"/>
		<path fill="#0071AB" d="M36.102,18.141h1.073v0.664h0.033c0.283-0.506,0.821-0.811,1.453-0.811c0.863,0,1.41,0.389,1.41,1.537
			v4.275h-1.138v-3.885c0-0.738-0.221-1.023-0.789-1.023c-0.463,0-0.906,0.369-0.906,1.107v3.801h-1.137V18.141L36.102,18.141z"/>
	</g>
</g>
<g id="Calque_2">
</g>
</svg>
