<?xml version="1.0" encoding="utf-8"?>
<!-- Generator: Adobe Illustrator 16.0.0, SVG Export Plug-In . SVG Version: 6.00 Build 0)  -->
<!DOCTYPE svg PUBLIC "-//W3C//DTD SVG 1.1//EN" "http://www.w3.org/Graphics/SVG/1.1/DTD/svg11.dtd">
<svg version="1.1" xmlns="http://www.w3.org/2000/svg" xmlns:xlink="http://www.w3.org/1999/xlink" x="0px" y="0px" width="47px"
	 height="31px" viewBox="0 0 47 31" enable-background="new 0 0 47 31" xml:space="preserve">
<g id="Calque_1" display="none">
	<g display="inline">
		<path fill="#FFFFFF" d="M46.482,27.748c0,1.523-0.908,2.76-2.03,2.76H2.885c-1.122,0-2.031-1.236-2.031-2.76V3.278
			c0-1.524,0.91-2.76,2.031-2.76h41.567c1.122,0,2.03,1.236,2.03,2.76V27.748z"/>
		<path fill="#D5D5D5" d="M44.452,31.025H2.885c-1.405,0-2.548-1.471-2.548-3.277V3.278C0.337,1.471,1.48,0,2.885,0h41.567
			C45.856,0,47,1.471,47,3.278v24.47C47,29.555,45.856,31.025,44.452,31.025z M2.885,1.034c-0.82,0-1.514,1.027-1.514,2.244v24.47
			c0,1.216,0.694,2.242,1.514,2.242h41.567c0.821,0,1.515-1.026,1.515-2.242V3.278c0-1.216-0.693-2.244-1.515-2.244H2.885z"/>
	</g>
</g>
<g id="Calque_2">
	<polygon fill="#0078BE" points="15.423,20.561 21.84,20.561 25.433,16.713 31.873,16.713 26.404,22.814 6.181,22.814 6.181,18.738 
		17.027,18.738 	"/>
	<polygon fill="#FFE236" points="31.873,16.713 25.433,16.713 21.84,20.583 15.377,20.583 20.846,14.481 41.092,14.481 
		41.092,18.534 30.246,18.534 	"/>
	<path fill="#0078BE" d="M38.494,12.979c-0.295,0.182-0.679,0.272-1.04,0.272c-1.039,0-1.966-0.774-1.966-1.844
		s0.836-1.844,1.897-1.844c0.385,0,0.813,0.068,1.108,0.25v1.139c-0.227-0.205-0.565-0.273-0.949-0.273
		c-0.361,0-0.791,0.296-0.791,0.774c0,0.41,0.43,0.66,0.791,0.66c0.406,0,0.654-0.022,0.949-0.25V12.979L38.494,12.979z"/>
	<path fill="#0078BE" d="M41.137,12.114v0.866c-0.926,0.683-1.988,0.113-1.988-0.683v-1.594h-0.451V9.655h0.451V8.813l1.266-0.684
		v1.525h0.723v0.957h-0.654v1.479C40.482,12.365,40.934,12.342,41.137,12.114L41.137,12.114z"/>
	<path fill="#0078BE" d="M31.986,10.794l0.203-0.979c1.266-0.432,3.072-0.182,3.072,0.957v2.414h-1.174l-0.046-0.114
		c-0.542,0.342-2.53,0.501-2.26-1.07c0.158-0.934,1.221-1.161,1.876-1.161c0.339,0,0.475-0.319,0.045-0.341
		C33.318,10.475,32.551,10.521,31.986,10.794L31.986,10.794z"/>
	<path fill="#0078BE" d="M10.655,10.794l0.181-0.979c1.266-0.432,3.073-0.182,3.073,0.957v2.414h-1.197l-0.022-0.114
		c-0.52,0.342-2.576,0.501-2.26-1.07c0.158-0.934,1.198-1.161,1.853-1.161c0.339,0,0.474-0.319,0.068-0.341
		C11.966,10.475,11.175,10.521,10.655,10.794L10.655,10.794z"/>
	<path fill="#0078BE" d="M25.139,11.454c0,1.07-0.881,1.822-1.943,1.822c-1.062,0-1.965-0.797-1.965-1.867
		c0-1.047,0.903-1.867,1.943-1.867C24.258,9.542,25.139,10.361,25.139,11.454L25.139,11.454z"/>
	<path fill="#0078BE" d="M31.557,12.114v0.866c-0.949,0.683-1.988,0.113-1.988-0.683v-1.594h-0.453V9.655h0.453V8.813l1.287-0.684
		v1.525h0.701v0.957h-0.678v1.479C30.879,12.365,31.354,12.342,31.557,12.114L31.557,12.114z"/>
	<path fill="#0078BE" d="M8.554,7.88c1.175,0,2.033,1.57,0.949,2.549c1.356,0.842,0.746,2.709-0.768,2.732H6.203V7.88H8.554
		L8.554,7.88z"/>
	<path fill="#0078BE" d="M21.004,12.979c-0.294,0.182-0.633,0.272-1.017,0.272c-1.062,0-1.966-0.774-1.966-1.844
		s0.836-1.844,1.875-1.844c0.385,0,0.813,0.068,1.107,0.25v1.139c-0.248-0.205-0.543-0.273-0.926-0.273
		c-0.385,0-0.814,0.296-0.814,0.774c0,0.41,0.453,0.66,0.814,0.66c0.383,0,0.632-0.022,0.926-0.25V12.979L21.004,12.979z"/>
	<path fill="#0078BE" d="M17.772,10.885v2.3h-1.265v-1.981c0-0.705-1.018-0.683-1.018,0v1.981h-1.266V9.655h1.289v0.296
		C16.575,9.154,17.772,9.883,17.772,10.885L17.772,10.885z"/>
	<path fill="#0078BE" d="M28.936,10.885v2.3H27.67v-1.981c0-0.705-1.018-0.683-1.018,0v1.981h-1.265V9.655h1.265v0.296
		C27.738,9.154,28.936,9.883,28.936,10.885L28.936,10.885z"/>
	<path fill="#0078BE" d="M33.703,10.498c0.43,0.022,0.294,0.341-0.045,0.341c-0.655,0-1.718,0.228-1.876,1.161
		c-0.271,1.571,1.718,1.412,2.26,1.07l0.046,0.114h1.174v-2.414c0-1.139-1.807-1.389-3.072-0.957l-0.203,0.979
		C32.551,10.521,33.318,10.475,33.703,10.498L33.703,10.498z"/>
	<path fill="#0078BE" d="M12.35,10.498c0.406,0.022,0.271,0.341-0.068,0.341c-0.655,0-1.695,0.228-1.853,1.161
		c-0.316,1.571,1.74,1.412,2.26,1.07l0.022,0.114h1.197v-2.414c0-1.139-1.807-1.389-3.072-0.957l-0.181,0.979
		C11.175,10.521,11.966,10.475,12.35,10.498L12.35,10.498z"/>
	<path fill="#0078BE" d="M23.174,9.542c-1.04,0-1.943,0.82-1.943,1.867c0,1.07,0.903,1.867,1.965,1.867
		c1.063,0,1.943-0.752,1.943-1.821C25.139,10.361,24.258,9.542,23.174,9.542L23.174,9.542z"/>
	<path fill="#0078BE" d="M30.879,12.091v-1.48h0.678V9.655h-0.701V8.13l-1.287,0.684v0.842h-0.453v1.047h0.453v1.594
		c0,0.796,1.039,1.366,1.988,0.683v-0.866C31.354,12.342,30.879,12.365,30.879,12.091L30.879,12.091z"/>
	<path fill="#0078BE" d="M6.203,7.88v5.281h2.531c1.514-0.022,2.124-1.89,0.768-2.732C10.587,9.45,9.729,7.88,8.554,7.88H6.203
		L6.203,7.88z"/>
	<path fill="#0078BE" d="M21.004,11.864c-0.294,0.228-0.543,0.25-0.926,0.25c-0.361,0-0.814-0.25-0.814-0.66
		c0-0.478,0.43-0.774,0.814-0.774c0.383,0,0.678,0.068,0.926,0.273V9.814c-0.294-0.182-0.723-0.25-1.107-0.25
		c-1.039,0-1.875,0.774-1.875,1.844s0.904,1.844,1.966,1.844c0.384,0,0.723-0.091,1.017-0.272V11.864L21.004,11.864z"/>
	<path fill="#0078BE" d="M15.514,9.951V9.655h-1.289v3.529h1.266v-1.981c0-0.683,1.018-0.705,1.018,0v1.981h1.265v-2.3
		C17.772,9.883,16.575,9.154,15.514,9.951L15.514,9.951z"/>
	<path fill="#0078BE" d="M26.652,9.951V9.655h-1.265v3.529h1.265v-1.981c0-0.683,1.018-0.705,1.018,0v1.981h1.266v-2.3
		C28.936,9.883,27.738,9.154,26.652,9.951L26.652,9.951z"/>
	<path fill="#0078BE" d="M38.494,11.864c-0.295,0.228-0.543,0.25-0.949,0.25c-0.361,0-0.791-0.25-0.791-0.66
		c0-0.478,0.43-0.774,0.791-0.774c0.384,0,0.723,0.068,0.949,0.273V9.814c-0.295-0.182-0.724-0.25-1.108-0.25
		c-1.062,0-1.897,0.774-1.897,1.844s0.927,1.844,1.966,1.844c0.361,0,0.745-0.091,1.04-0.272V11.864L38.494,11.864z"/>
	<path fill="#0078BE" d="M40.482,12.091v-1.48h0.654V9.655h-0.723V8.13l-1.266,0.684v0.842h-0.451v1.047h0.451v1.594
		c0,0.796,1.063,1.366,1.988,0.683v-0.866C40.934,12.342,40.482,12.365,40.482,12.091L40.482,12.091z"/>
	<path fill="#0078BE" d="M23.92,11.454c0,0.387-0.34,0.706-0.725,0.706c-0.384,0-0.699-0.319-0.699-0.751
		c0-0.455,0.315-0.706,0.699-0.706C23.58,10.703,23.92,10.953,23.92,11.454L23.92,11.454z"/>
	<path fill="#0078BE" d="M7.649,11.044h0.565c0.701,0,0.768,1.07,0.023,1.07H7.649V11.044L7.649,11.044z"/>
	<path fill="#0078BE" d="M12.643,11.636v0.433c0,0.478-0.949,0.614-0.949,0.113C11.694,11.727,12.372,11.59,12.643,11.636
		L12.643,11.636z"/>
	<path fill="#0078BE" d="M33.997,11.636v0.433c0,0.478-0.927,0.614-0.927,0.113C33.07,11.727,33.748,11.59,33.997,11.636
		L33.997,11.636z"/>
	<path fill="#0078BE" d="M8.214,8.949C8.87,9.246,8.644,9.951,8.237,9.951H7.649V8.949C7.649,8.927,8.056,8.904,8.214,8.949
		L8.214,8.949z"/>
	<path fill="#FFFFFF" d="M23.195,10.703c-0.384,0-0.699,0.25-0.699,0.706c0,0.433,0.315,0.751,0.699,0.751
		c0.385,0,0.725-0.319,0.725-0.706C23.92,10.953,23.58,10.703,23.195,10.703L23.195,10.703z"/>
	<path fill="#FFFFFF" d="M33.07,12.182c0,0.501,0.927,0.364,0.927-0.113v-0.433C33.748,11.59,33.07,11.727,33.07,12.182
		L33.07,12.182z"/>
	<path fill="#FFFFFF" d="M7.649,8.949v1.002h0.588c0.406,0,0.632-0.706-0.023-1.002C8.056,8.904,7.649,8.927,7.649,8.949
		L7.649,8.949z"/>
	<path fill="#FFFFFF" d="M11.694,12.182c0,0.501,0.949,0.364,0.949-0.113v-0.433C12.372,11.59,11.694,11.727,11.694,12.182
		L11.694,12.182z"/>
	<path fill="#FFFFFF" d="M7.649,12.114h0.588c0.745,0,0.678-1.07-0.023-1.07H7.649V12.114L7.649,12.114z"/>
	<g>
		<path fill="#1CABE2" d="M46.421,27.709c0,1.523-0.908,2.758-2.028,2.758H2.881c-1.12,0-2.027-1.234-2.027-2.758V3.273
			c0-1.522,0.907-2.757,2.027-2.757h41.512c1.12,0,2.028,1.235,2.028,2.757V27.709z"/>
		<path fill="#1CABE2" d="M44.393,30.982H2.881c-1.402,0-2.544-1.469-2.544-3.273V3.273C0.337,1.468,1.479,0,2.881,0h41.512
			c1.402,0,2.545,1.468,2.545,3.273v24.436C46.938,29.514,45.795,30.982,44.393,30.982z M2.881,1.033
			c-0.818,0-1.512,1.026-1.512,2.241v24.436c0,1.215,0.693,2.242,1.512,2.242h41.512c0.819,0,1.512-1.027,1.512-2.242V3.273
			c0-1.215-0.692-2.241-1.512-2.241H2.881z"/>
	</g>
	<path fill="#FFFFFF" d="M4.716,11.113l-0.89-2.168l-0.885,2.168 M24.314,10.25c-0.179,0.108-0.391,0.112-0.644,0.112h-1.579V9.154
		h1.602c0.226,0,0.463,0.01,0.615,0.098c0.169,0.08,0.273,0.248,0.273,0.481C24.582,9.97,24.482,10.162,24.314,10.25z
		 M35.578,11.113L34.68,8.945l-0.895,2.168H35.578z M14.581,13.459h-1.333l-0.004-4.258l-1.885,4.258h-1.143L8.328,9.197v4.262
		H5.684l-0.499-1.213H2.479l-0.504,1.213H0.563L2.89,8.021H4.82l2.211,5.148V8.021h2.122l1.7,3.689l1.563-3.689h2.164V13.459
		L14.581,13.459z M19.893,13.459H15.55V8.021h4.343v1.132H16.85v0.98h2.969v1.115H16.85v1.085h3.043V13.459z M26.014,9.486
		c0,0.867-0.578,1.315-0.916,1.449c0.285,0.108,0.527,0.3,0.643,0.458c0.184,0.27,0.216,0.512,0.216,0.997v1.068h-1.311
		l-0.005-0.686c0-0.327,0.031-0.798-0.205-1.059c-0.19-0.191-0.48-0.233-0.947-0.233h-1.396v1.978h-1.299V8.021h2.989
		c0.664,0,1.153,0.018,1.573,0.26C25.768,8.525,26.014,8.879,26.014,9.486z M28.094,13.459h-1.326V8.021h1.326V13.459z
		 M43.48,13.459h-1.842l-2.464-4.081v4.081h-2.647l-0.506-1.213h-2.699l-0.492,1.213h-1.52c-0.633,0-1.432-0.14-1.885-0.602
		c-0.457-0.461-0.695-1.086-0.695-2.076c0-0.806,0.143-1.543,0.701-2.126c0.42-0.435,1.078-0.634,1.974-0.634h1.259v1.165h-1.232
		c-0.475,0-0.742,0.071-1,0.322c-0.222,0.229-0.373,0.662-0.373,1.231c0,0.583,0.115,1.003,0.357,1.277
		c0.199,0.215,0.563,0.28,0.905,0.28h0.583l1.833-4.276h1.947l2.2,5.144V8.021h1.979l2.284,3.788V8.021h1.332V13.459L43.48,13.459z
		 M0.547,14.527h2.221L3.27,13.32h1.12l0.499,1.207h4.37v-0.924l0.39,0.928h2.269l0.391-0.941v0.938h10.859l-0.005-1.982h0.209
		c0.147,0.005,0.191,0.019,0.191,0.262v1.721h5.615v-0.461c0.453,0.242,1.158,0.461,2.086,0.461h2.362l0.506-1.207h1.121
		l0.495,1.207h4.553v-1.146l0.689,1.146h3.648V6.943h-3.611v0.896l-0.506-0.896h-3.705v0.896l-0.464-0.896h-5.005
		c-0.838,0-1.574,0.117-2.17,0.443V6.943h-3.453v0.443c-0.379-0.336-0.895-0.443-1.468-0.443H11.639l-0.848,1.958L9.922,6.943H5.947
		v0.896L5.511,6.943h-3.39l-1.574,3.606V14.527L0.547,14.527L0.547,14.527z"/>
	<path fill="#FFFFFF" d="M46.791,18.539h-2.368c-0.237,0-0.394,0.008-0.526,0.098c-0.137,0.088-0.189,0.219-0.189,0.391
		c0,0.207,0.115,0.346,0.284,0.406c0.138,0.047,0.284,0.061,0.501,0.061l0.704,0.02c0.711,0.018,1.185,0.139,1.475,0.438
		c0.053,0.041,0.084,0.088,0.12,0.135 M46.791,22.125c-0.314,0.461-0.931,0.695-1.764,0.695h-2.51v-1.166h2.5
		c0.248,0,0.422-0.033,0.525-0.135c0.092-0.084,0.154-0.207,0.154-0.355c0-0.158-0.063-0.283-0.159-0.359
		c-0.094-0.082-0.231-0.121-0.458-0.121c-1.221-0.041-2.742,0.039-2.742-1.684c0-0.789,0.5-1.619,1.864-1.619h2.589v-1.082h-2.405
		c-0.726,0-1.253,0.174-1.626,0.445v-0.445h-3.559c-0.569,0-1.236,0.141-1.553,0.445v-0.445h-6.354v0.445
		c-0.506-0.365-1.359-0.445-1.753-0.445h-4.191v0.445c-0.399-0.389-1.289-0.445-1.832-0.445h-4.69l-1.073,1.162l-1.005-1.162H9.743
		v7.59h6.875l1.106-1.18l1.041,1.18l4.238,0.004v-1.785h0.416c0.563,0.008,1.226-0.014,1.811-0.268v2.049h3.495V21.91h0.169
		c0.215,0,0.236,0.01,0.236,0.225v1.754h10.617c0.675,0,1.379-0.174,1.77-0.486v0.486h3.368c0.7,0,1.386-0.1,1.906-0.35
		L46.791,22.125L46.791,22.125z M41.606,19.951c0.253,0.262,0.39,0.594,0.39,1.152c0,1.17-0.731,1.717-2.043,1.717h-2.531v-1.166
		h2.521c0.247,0,0.422-0.033,0.531-0.135c0.09-0.084,0.153-0.207,0.153-0.355c0-0.158-0.069-0.283-0.159-0.359
		c-0.1-0.082-0.236-0.121-0.462-0.121c-1.216-0.041-2.738,0.039-2.738-1.684c0-0.789,0.495-1.619,1.858-1.619h2.605v1.158h-2.384
		c-0.236,0-0.39,0.008-0.521,0.098c-0.143,0.088-0.195,0.219-0.195,0.393c0,0.205,0.121,0.344,0.284,0.404
		c0.138,0.049,0.284,0.063,0.506,0.063l0.7,0.018C40.828,19.531,41.313,19.652,41.606,19.951z M29.878,19.615
		c-0.175,0.104-0.389,0.113-0.642,0.113h-1.578v-1.223h1.6c0.231,0,0.463,0.006,0.621,0.098c0.168,0.088,0.268,0.258,0.268,0.49
		S30.047,19.514,29.878,19.615z M30.663,20.293c0.29,0.107,0.526,0.299,0.637,0.457c0.184,0.266,0.21,0.512,0.216,0.992v1.078
		h-1.305v-0.68c0-0.328,0.031-0.813-0.211-1.066c-0.189-0.193-0.479-0.24-0.953-0.24h-1.39v1.986h-1.306v-5.439h3
		c0.658,0,1.138,0.029,1.564,0.258c0.41,0.246,0.668,0.586,0.668,1.207C31.584,19.713,31.006,20.156,30.663,20.293z M32.305,17.381
		h4.339v1.125H33.6v0.988h2.97v1.111H33.6v1.082l3.044,0.004v1.129h-4.339V17.381z M23.535,19.891h-1.68v-1.385h1.695
		c0.469,0,0.795,0.191,0.795,0.668C24.346,19.643,24.035,19.891,23.535,19.891z M20.561,22.326l-1.994-2.217l1.994-2.145V22.326z
		 M15.407,21.688h-3.195v-1.082h2.854v-1.111h-2.854v-0.988h3.259l1.422,1.586L15.407,21.688z M25.74,19.174
		c0,1.51-1.127,1.822-2.263,1.822h-1.622v1.824h-2.526l-1.601-1.801l-1.663,1.801h-5.148v-5.439h5.228l1.6,1.783l1.652-1.783h4.154
		C24.582,17.381,25.74,17.666,25.74,19.174z"/>
</g>
</svg>
