<?xml version="1.0" encoding="UTF-8" standalone="no"?><!DOCTYPE svg PUBLIC "-//W3C//DTD SVG 1.1//EN" "http://www.w3.org/Graphics/SVG/1.1/DTD/svg11.dtd"><svg width="100%" height="100%" viewBox="0 0 196 130" version="1.1" xmlns="http://www.w3.org/2000/svg" xmlns:xlink="http://www.w3.org/1999/xlink" xml:space="preserve" xmlns:serif="http://www.serif.com/" style="fill-rule:evenodd;clip-rule:evenodd;stroke-linejoin:round;stroke-miterlimit:2;"><g id="Calque_1"><g><path d="M192.973,115.565c0,6.345 -3.783,11.5 -8.458,11.5l-173.196,0c-4.675,0 -8.463,-5.15 -8.463,-11.5l0,-101.959c0,-6.35 3.792,-11.5 8.463,-11.5l173.196,0c4.675,0 8.458,5.15 8.458,11.5l0,101.959Z" style="fill:#fff;fill-rule:nonzero;"/><path d="M184.515,129.219l-173.196,0c-5.854,0 -10.617,-6.129 -10.617,-13.654l0,-101.959c0,-7.529 4.763,-13.658 10.617,-13.658l173.196,0c5.85,0 10.616,6.129 10.616,13.658l0,101.959c0,7.529 -4.766,13.654 -10.616,13.654Zm-173.196,-124.963c-3.417,0 -6.309,4.279 -6.309,9.35l0,101.959c0,5.066 2.892,9.341 6.309,9.341l173.196,0c3.42,0 6.312,-4.275 6.312,-9.341l0,-101.959c0,-5.066 -2.887,-9.35 -6.312,-9.35l-173.196,0Z" style="fill:#d5d5d5;fill-rule:nonzero;"/></g></g><g id="Calque_2"><g><path id="XMLID_34_" d="M51.673,42.377c-1.708,2.021 -4.442,3.615 -7.175,3.388c-0.341,-2.734 0.997,-5.638 2.563,-7.431c1.708,-2.078 4.697,-3.559 7.117,-3.673c0.285,2.847 -0.825,5.637 -2.505,7.716m2.477,3.928c-3.958,-0.227 -7.346,2.25 -9.225,2.25c-1.907,0 -4.783,-2.136 -7.914,-2.079c-4.072,0.057 -7.858,2.363 -9.936,6.036c-4.271,7.345 -1.111,18.221 3.017,24.2c2.022,2.961 4.442,6.206 7.63,6.092c3.018,-0.114 4.214,-1.964 7.858,-1.964c3.673,0 4.726,1.964 7.915,1.907c3.302,-0.057 5.381,-2.961 7.402,-5.922c2.306,-3.359 3.246,-6.633 3.303,-6.804c-0.057,-0.057 -6.378,-2.477 -6.435,-9.765c-0.057,-6.093 4.983,-8.997 5.21,-9.168c-2.847,-4.213 -7.288,-4.669 -8.825,-4.783m22.861,-8.256l0,44.385l6.89,0l0,-15.174l9.538,0c8.711,0 14.832,-5.979 14.832,-14.634c0,-8.655 -6.007,-14.577 -14.605,-14.577l-16.655,0Zm6.89,5.808l7.943,0c5.979,0 9.395,3.189 9.395,8.797c0,5.609 -3.416,8.826 -9.423,8.826l-7.915,0l0,-17.623Zm36.954,38.919c4.328,0 8.342,-2.192 10.164,-5.666l0.142,0l0,5.324l6.378,0l0,-22.093c0,-6.406 -5.125,-10.534 -13.011,-10.534c-7.317,0 -12.726,4.185 -12.926,9.936l6.207,0c0.512,-2.733 3.046,-4.526 6.52,-4.526c4.213,0 6.576,1.964 6.576,5.58l0,2.448l-8.598,0.513c-8,0.484 -12.327,3.758 -12.327,9.452c0,5.751 4.469,9.566 10.875,9.566Zm1.851,-5.267c-3.673,0 -6.007,-1.765 -6.007,-4.47c0,-2.79 2.249,-4.413 6.548,-4.669l7.658,-0.484l0,2.505c0,4.157 -3.53,7.118 -8.199,7.118Zm23.345,16.996c6.719,0 9.879,-2.562 12.641,-10.334l12.1,-33.937l-7.004,0l-8.114,26.221l-0.142,0l-8.114,-26.221l-7.203,0l11.673,32.314l-0.627,1.964c-1.053,3.331 -2.761,4.613 -5.808,4.613c-0.54,0 -1.594,-0.057 -2.021,-0.114l0,5.324c0.399,0.114 2.107,0.17 2.619,0.17Z" style="fill-rule:nonzero;"/></g></g></svg>