<?xml version="1.0" encoding="utf-8"?>
<!-- Generator: Adobe Illustrator 16.0.0, SVG Export Plug-In . SVG Version: 6.00 Build 0)  -->
<!DOCTYPE svg PUBLIC "-//W3C//DTD SVG 1.1//EN" "http://www.w3.org/Graphics/SVG/1.1/DTD/svg11.dtd">
<svg version="1.1" xmlns="http://www.w3.org/2000/svg" xmlns:xlink="http://www.w3.org/1999/xlink" x="0px" y="0px" width="47px"
	 height="31px" viewBox="0 0 47 31" enable-background="new 0 0 47 31" xml:space="preserve">
<g id="Calque_1">
	<g>
		<path fill="#FFFFFF" d="M46.482,27.748c0,1.523-0.908,2.76-2.03,2.76H2.885c-1.122,0-2.031-1.236-2.031-2.76V3.278
			c0-1.524,0.91-2.76,2.031-2.76h41.567c1.122,0,2.03,1.236,2.03,2.76V27.748z"/>
		<path fill="#D5D5D5" d="M44.452,31.025H2.885c-1.405,0-2.548-1.471-2.548-3.277V3.278C0.337,1.471,1.48,0,2.885,0h41.567
			C45.856,0,47,1.471,47,3.278v24.47C47,29.555,45.856,31.025,44.452,31.025z M2.885,1.034c-0.82,0-1.514,1.027-1.514,2.244v24.47
			c0,1.216,0.694,2.242,1.514,2.242h41.567c0.821,0,1.515-1.026,1.515-2.242V3.278c0-1.216-0.693-2.244-1.515-2.244H2.885z"/>
	</g>
</g>
<g id="Calque_2">
	<polygon fill="#0078BE" points="15.423,20.561 21.84,20.561 25.433,16.713 31.873,16.713 26.404,22.814 6.181,22.814 6.181,18.738 
		17.027,18.738 	"/>
	<polygon fill="#FFE236" points="31.873,16.713 25.433,16.713 21.84,20.583 15.377,20.583 20.846,14.481 41.092,14.481 
		41.092,18.534 30.246,18.534 	"/>
	<path fill="#0078BE" d="M38.494,12.979c-0.295,0.182-0.679,0.272-1.04,0.272c-1.039,0-1.966-0.774-1.966-1.844
		s0.836-1.844,1.897-1.844c0.385,0,0.813,0.068,1.108,0.25v1.139c-0.227-0.205-0.565-0.273-0.949-0.273
		c-0.361,0-0.791,0.296-0.791,0.774c0,0.41,0.43,0.66,0.791,0.66c0.406,0,0.654-0.022,0.949-0.25V12.979L38.494,12.979z"/>
	<path fill="#0078BE" d="M41.137,12.114v0.866c-0.926,0.683-1.988,0.113-1.988-0.683v-1.594h-0.451V9.655h0.451V8.813l1.266-0.684
		v1.525h0.723v0.957h-0.654v1.479C40.482,12.365,40.934,12.342,41.137,12.114L41.137,12.114z"/>
	<path fill="#0078BE" d="M31.986,10.794l0.203-0.979c1.266-0.432,3.072-0.182,3.072,0.957v2.414h-1.174l-0.046-0.114
		c-0.542,0.342-2.53,0.501-2.26-1.07c0.158-0.934,1.221-1.161,1.876-1.161c0.339,0,0.475-0.319,0.045-0.341
		C33.318,10.475,32.551,10.521,31.986,10.794L31.986,10.794z"/>
	<path fill="#0078BE" d="M10.655,10.794l0.181-0.979c1.266-0.432,3.073-0.182,3.073,0.957v2.414h-1.197l-0.022-0.114
		c-0.52,0.342-2.576,0.501-2.26-1.07c0.158-0.934,1.198-1.161,1.853-1.161c0.339,0,0.474-0.319,0.068-0.341
		C11.966,10.475,11.175,10.521,10.655,10.794L10.655,10.794z"/>
	<path fill="#0078BE" d="M25.139,11.454c0,1.07-0.881,1.822-1.943,1.822c-1.062,0-1.965-0.797-1.965-1.867
		c0-1.047,0.903-1.867,1.943-1.867C24.258,9.542,25.139,10.361,25.139,11.454L25.139,11.454z"/>
	<path fill="#0078BE" d="M31.557,12.114v0.866c-0.949,0.683-1.988,0.113-1.988-0.683v-1.594h-0.453V9.655h0.453V8.813l1.287-0.684
		v1.525h0.701v0.957h-0.678v1.479C30.879,12.365,31.354,12.342,31.557,12.114L31.557,12.114z"/>
	<path fill="#0078BE" d="M8.554,7.88c1.175,0,2.033,1.57,0.949,2.549c1.356,0.842,0.746,2.709-0.768,2.732H6.203V7.88H8.554
		L8.554,7.88z"/>
	<path fill="#0078BE" d="M21.004,12.979c-0.294,0.182-0.633,0.272-1.017,0.272c-1.062,0-1.966-0.774-1.966-1.844
		s0.836-1.844,1.875-1.844c0.385,0,0.813,0.068,1.107,0.25v1.139c-0.248-0.205-0.543-0.273-0.926-0.273
		c-0.385,0-0.814,0.296-0.814,0.774c0,0.41,0.453,0.66,0.814,0.66c0.383,0,0.632-0.022,0.926-0.25V12.979L21.004,12.979z"/>
	<path fill="#0078BE" d="M17.772,10.885v2.3h-1.265v-1.981c0-0.705-1.018-0.683-1.018,0v1.981h-1.266V9.655h1.289v0.296
		C16.575,9.154,17.772,9.883,17.772,10.885L17.772,10.885z"/>
	<path fill="#0078BE" d="M28.936,10.885v2.3H27.67v-1.981c0-0.705-1.018-0.683-1.018,0v1.981h-1.265V9.655h1.265v0.296
		C27.738,9.154,28.936,9.883,28.936,10.885L28.936,10.885z"/>
	<path fill="#0078BE" d="M33.703,10.498c0.43,0.022,0.294,0.341-0.045,0.341c-0.655,0-1.718,0.228-1.876,1.161
		c-0.271,1.571,1.718,1.412,2.26,1.07l0.046,0.114h1.174v-2.414c0-1.139-1.807-1.389-3.072-0.957l-0.203,0.979
		C32.551,10.521,33.318,10.475,33.703,10.498L33.703,10.498z"/>
	<path fill="#0078BE" d="M12.35,10.498c0.406,0.022,0.271,0.341-0.068,0.341c-0.655,0-1.695,0.228-1.853,1.161
		c-0.316,1.571,1.74,1.412,2.26,1.07l0.022,0.114h1.197v-2.414c0-1.139-1.807-1.389-3.072-0.957l-0.181,0.979
		C11.175,10.521,11.966,10.475,12.35,10.498L12.35,10.498z"/>
	<path fill="#0078BE" d="M23.174,9.542c-1.04,0-1.943,0.82-1.943,1.867c0,1.07,0.903,1.867,1.965,1.867
		c1.063,0,1.943-0.752,1.943-1.821C25.139,10.361,24.258,9.542,23.174,9.542L23.174,9.542z"/>
	<path fill="#0078BE" d="M30.879,12.091v-1.48h0.678V9.655h-0.701V8.13l-1.287,0.684v0.842h-0.453v1.047h0.453v1.594
		c0,0.796,1.039,1.366,1.988,0.683v-0.866C31.354,12.342,30.879,12.365,30.879,12.091L30.879,12.091z"/>
	<path fill="#0078BE" d="M6.203,7.88v5.281h2.531c1.514-0.022,2.124-1.89,0.768-2.732C10.587,9.45,9.729,7.88,8.554,7.88H6.203
		L6.203,7.88z"/>
	<path fill="#0078BE" d="M21.004,11.864c-0.294,0.228-0.543,0.25-0.926,0.25c-0.361,0-0.814-0.25-0.814-0.66
		c0-0.478,0.43-0.774,0.814-0.774c0.383,0,0.678,0.068,0.926,0.273V9.814c-0.294-0.182-0.723-0.25-1.107-0.25
		c-1.039,0-1.875,0.774-1.875,1.844s0.904,1.844,1.966,1.844c0.384,0,0.723-0.091,1.017-0.272V11.864L21.004,11.864z"/>
	<path fill="#0078BE" d="M15.514,9.951V9.655h-1.289v3.529h1.266v-1.981c0-0.683,1.018-0.705,1.018,0v1.981h1.265v-2.3
		C17.772,9.883,16.575,9.154,15.514,9.951L15.514,9.951z"/>
	<path fill="#0078BE" d="M26.652,9.951V9.655h-1.265v3.529h1.265v-1.981c0-0.683,1.018-0.705,1.018,0v1.981h1.266v-2.3
		C28.936,9.883,27.738,9.154,26.652,9.951L26.652,9.951z"/>
	<path fill="#0078BE" d="M38.494,11.864c-0.295,0.228-0.543,0.25-0.949,0.25c-0.361,0-0.791-0.25-0.791-0.66
		c0-0.478,0.43-0.774,0.791-0.774c0.384,0,0.723,0.068,0.949,0.273V9.814c-0.295-0.182-0.724-0.25-1.108-0.25
		c-1.062,0-1.897,0.774-1.897,1.844s0.927,1.844,1.966,1.844c0.361,0,0.745-0.091,1.04-0.272V11.864L38.494,11.864z"/>
	<path fill="#0078BE" d="M40.482,12.091v-1.48h0.654V9.655h-0.723V8.13l-1.266,0.684v0.842h-0.451v1.047h0.451v1.594
		c0,0.796,1.063,1.366,1.988,0.683v-0.866C40.934,12.342,40.482,12.365,40.482,12.091L40.482,12.091z"/>
	<path fill="#0078BE" d="M23.92,11.454c0,0.387-0.34,0.706-0.725,0.706c-0.384,0-0.699-0.319-0.699-0.751
		c0-0.455,0.315-0.706,0.699-0.706C23.58,10.703,23.92,10.953,23.92,11.454L23.92,11.454z"/>
	<path fill="#0078BE" d="M7.649,11.044h0.565c0.701,0,0.768,1.07,0.023,1.07H7.649V11.044L7.649,11.044z"/>
	<path fill="#0078BE" d="M12.643,11.636v0.433c0,0.478-0.949,0.614-0.949,0.113C11.694,11.727,12.372,11.59,12.643,11.636
		L12.643,11.636z"/>
	<path fill="#0078BE" d="M33.997,11.636v0.433c0,0.478-0.927,0.614-0.927,0.113C33.07,11.727,33.748,11.59,33.997,11.636
		L33.997,11.636z"/>
	<path fill="#0078BE" d="M8.214,8.949C8.87,9.246,8.644,9.951,8.237,9.951H7.649V8.949C7.649,8.927,8.056,8.904,8.214,8.949
		L8.214,8.949z"/>
	<path fill="#FFFFFF" d="M23.195,10.703c-0.384,0-0.699,0.25-0.699,0.706c0,0.433,0.315,0.751,0.699,0.751
		c0.385,0,0.725-0.319,0.725-0.706C23.92,10.953,23.58,10.703,23.195,10.703L23.195,10.703z"/>
	<path fill="#FFFFFF" d="M33.07,12.182c0,0.501,0.927,0.364,0.927-0.113v-0.433C33.748,11.59,33.07,11.727,33.07,12.182
		L33.07,12.182z"/>
	<path fill="#FFFFFF" d="M7.649,8.949v1.002h0.588c0.406,0,0.632-0.706-0.023-1.002C8.056,8.904,7.649,8.927,7.649,8.949
		L7.649,8.949z"/>
	<path fill="#FFFFFF" d="M11.694,12.182c0,0.501,0.949,0.364,0.949-0.113v-0.433C12.372,11.59,11.694,11.727,11.694,12.182
		L11.694,12.182z"/>
	<path fill="#FFFFFF" d="M7.649,12.114h0.588c0.745,0,0.678-1.07-0.023-1.07H7.649V12.114L7.649,12.114z"/>
</g>
</svg>
