<?xml version="1.0" encoding="utf-8"?>
<!-- Generator: Adobe Illustrator 16.0.0, SVG Export Plug-In . SVG Version: 6.00 Build 0)  -->
<!DOCTYPE svg PUBLIC "-//W3C//DTD SVG 1.1//EN" "http://www.w3.org/Graphics/SVG/1.1/DTD/svg11.dtd">
<svg version="1.1" xmlns="http://www.w3.org/2000/svg" xmlns:xlink="http://www.w3.org/1999/xlink" x="0px" y="0px" width="47px"
	 height="31px" viewBox="0 0 47 31" enable-background="new 0 0 47 31" xml:space="preserve">
<g id="Calque_1">
	<g>
		<path fill="#FFFFFF" d="M46.482,27.748c0,1.523-0.908,2.76-2.03,2.76H2.885c-1.122,0-2.031-1.236-2.031-2.76V3.278
			c0-1.524,0.91-2.76,2.031-2.76h41.567c1.122,0,2.03,1.236,2.03,2.76V27.748z"/>
		<path fill="#D5D5D5" d="M44.452,31.025H2.885c-1.405,0-2.548-1.471-2.548-3.277V3.278C0.337,1.471,1.48,0,2.885,0h41.567
			C45.856,0,47,1.471,47,3.278v24.47C47,29.555,45.856,31.025,44.452,31.025z M2.885,1.034c-0.82,0-1.514,1.027-1.514,2.244v24.47
			c0,1.216,0.694,2.242,1.514,2.242h41.567c0.821,0,1.515-1.026,1.515-2.242V3.278c0-1.216-0.693-2.244-1.515-2.244H2.885z"/>
	</g>
</g>
<g id="Calque_2">
	<g>
		<path fill="#1F1F1F" d="M5.208,6.995h1.274l1.274,6.003h0.021l1.349-6.003H10.4l-1.896,7.52H6.978L5.208,6.995z"/>
		<path fill="#1F1F1F" d="M10.938,6.911h1.137v1.138h-1.137V6.911z M10.938,8.849h1.137v5.667h-1.137V8.849z"/>
		<path fill="#1F1F1F" d="M13.223,8.849h1.138v0.884h0.021c0.252-0.632,0.674-1.032,1.316-1.032c0.126,0,0.2,0.021,0.273,0.042
			v1.159c-0.083-0.021-0.284-0.063-0.473-0.063c-0.516,0-1.137,0.232-1.137,1.285v3.392h-1.138V8.849z"/>
		<path fill="#1F1F1F" d="M17.456,11.829v0.326c0,0.759,0.095,1.727,0.948,1.727c0.811,0,0.905-0.926,0.905-1.264h1.074
			c0,1.254-0.758,2.044-1.989,2.044c-0.928,0-2.076-0.274-2.076-2.896c0-1.485,0.316-3.065,2.096-3.065
			c1.58,0,2.002,0.948,2.002,2.527v0.601H17.456z M19.278,11.05v-0.306c0-0.716-0.231-1.264-0.874-1.264
			c-0.727,0-0.949,0.716-0.949,1.454v0.116H19.278L19.278,11.05z"/>
		<path fill="#1F1F1F" d="M21.406,8.849h1.074v0.663h0.031c0.284-0.505,0.821-0.811,1.358-0.811c0.811,0,1.147,0.39,1.316,0.864
			c0.326-0.548,0.747-0.864,1.433-0.864c0.8,0,1.379,0.411,1.379,1.506v4.308h-1.137v-3.887c0-0.737-0.222-1.021-0.685-1.021
			c-0.464,0-0.906,0.369-0.906,1.106v3.802h-1.137v-3.887c0-0.737-0.222-1.021-0.695-1.021c-0.453,0-0.896,0.369-0.896,1.106v3.802
			h-1.137V8.849z"/>
		<path fill="#1F1F1F" d="M30.125,11.829v0.326c0,0.759,0.096,1.727,0.948,1.727c0.812,0,0.905-0.926,0.905-1.264h1.074
			c0,1.254-0.758,2.044-1.99,2.044c-0.927,0-2.074-0.274-2.074-2.896c0-1.485,0.316-3.065,2.096-3.065
			c1.58,0,2.001,0.948,2.001,2.527v0.601H30.125z M31.947,11.05v-0.306c0-0.716-0.231-1.264-0.874-1.264
			c-0.727,0-0.948,0.716-0.948,1.454v0.116H31.947L31.947,11.05z"/>
		<path fill="#1F1F1F" d="M34.021,8.849h1.074v0.663h0.032c0.284-0.505,0.821-0.811,1.453-0.811c0.864,0,1.411,0.39,1.411,1.538
			v4.276h-1.137v-3.887c0-0.737-0.222-1.021-0.791-1.021c-0.463,0-0.904,0.369-0.904,1.106v3.802h-1.138L34.021,8.849L34.021,8.849z
			"/>
		<path fill="#1F1F1F" d="M38.582,8.849h0.779V7.237h1.138v1.611h0.927v0.842h-0.927v3.38c0,0.443,0.126,0.6,0.517,0.6
			c0.168,0,0.305-0.01,0.41-0.03v0.842c-0.242,0.063-0.559,0.095-0.916,0.095c-0.77,0-1.148-0.21-1.148-1.369V9.691h-0.779V8.849z"
			/>
		<path fill="#0071AB" d="M6.404,16.287h1.137v2.518h0.021c0.21-0.506,0.674-0.813,1.285-0.813c0.864,0,1.749,0.391,1.749,2.908
			c0,1.949-0.527,3.055-1.854,3.055c-0.811,0-1.096-0.475-1.243-0.844H7.478v0.697H6.404V16.287L6.404,16.287z M8.437,23.049
			c0.79,0,0.958-0.811,0.958-2.096c0-1.527-0.231-2.055-0.885-2.055c-0.874,0-1.032,0.779-1.032,2.139
			C7.478,22.248,7.657,23.049,8.437,23.049z"/>
		<path fill="#0071AB" d="M15.187,22.627c0,0.211,0.126,0.4,0.295,0.4c0.074,0,0.147-0.01,0.189-0.031v0.736
			c-0.137,0.064-0.337,0.139-0.558,0.139c-0.505,0-0.927-0.201-0.959-0.748h-0.021c-0.305,0.557-0.748,0.832-1.411,0.832
			c-0.906,0-1.475-0.506-1.475-1.592c0-1.264,0.548-1.527,1.317-1.779l0.884-0.242c0.411-0.115,0.663-0.232,0.663-0.727
			c0-0.516-0.179-0.842-0.779-0.842c-0.758,0-0.864,0.537-0.864,1.084h-1.074c0-1.201,0.495-1.865,1.991-1.865
			c1,0,1.801,0.391,1.801,1.391V22.627L15.187,22.627z M14.112,20.816c-0.294,0.232-0.927,0.367-1.263,0.527
			c-0.327,0.156-0.463,0.494-0.463,0.914c0,0.475,0.231,0.854,0.705,0.854c0.685,0,1.021-0.516,1.021-1.348V20.816z"/>
		<path fill="#0071AB" d="M16.346,18.141h1.074v0.664h0.031c0.284-0.506,0.821-0.813,1.453-0.813c0.864,0,1.412,0.391,1.412,1.539
			v4.277h-1.139V19.92c0-0.736-0.221-1.021-0.789-1.021c-0.463,0-0.906,0.371-0.906,1.107v3.803h-1.137V18.141L16.346,18.141z"/>
		<path fill="#0071AB" d="M25.233,21.742c-0.073,1.359-0.536,2.213-1.938,2.213c-1.642,0-2.106-1.223-2.106-2.98
			c0-1.76,0.465-2.982,2.106-2.982c1.696-0.02,1.948,1.328,1.948,2.033h-1.137c0-0.525-0.147-1.211-0.812-1.189
			c-0.821,0-0.969,0.885-0.969,2.139c0,1.252,0.147,2.137,0.969,2.137c0.632,0.012,0.864-0.516,0.864-1.369H25.233z"/>
		<path fill="#0071AB" d="M29.804,22.627c0,0.211,0.127,0.4,0.296,0.4c0.072,0,0.146-0.01,0.189-0.031v0.736
			c-0.137,0.064-0.338,0.139-0.559,0.139c-0.506,0-0.927-0.201-0.958-0.748h-0.021c-0.306,0.557-0.747,0.832-1.411,0.832
			c-0.905,0-1.475-0.506-1.475-1.592c0-1.264,0.548-1.527,1.316-1.779l0.885-0.242c0.411-0.115,0.663-0.232,0.663-0.727
			c0-0.516-0.179-0.842-0.779-0.842c-0.757,0-0.863,0.537-0.863,1.084h-1.074c0-1.201,0.495-1.865,1.991-1.865
			c1,0,1.8,0.391,1.8,1.391V22.627L29.804,22.627z M28.73,20.816c-0.295,0.232-0.928,0.367-1.264,0.527
			c-0.326,0.156-0.464,0.494-0.464,0.914c0,0.475,0.231,0.854,0.706,0.854c0.684,0,1.021-0.516,1.021-1.348V20.816z"/>
		<path fill="#0071AB" d="M31.016,16.203h1.137v1.139h-1.137V16.203z M31.016,18.141h1.137v5.666h-1.137V18.141z"/>
		<path fill="#0071AB" d="M33.301,18.141h1.137v0.885h0.021c0.253-0.631,0.674-1.033,1.316-1.033c0.127,0,0.2,0.023,0.274,0.043
			v1.16c-0.084-0.023-0.284-0.064-0.474-0.064c-0.517,0-1.139,0.232-1.139,1.285v3.391h-1.137V18.141L33.301,18.141z"/>
		<path fill="#0071AB" d="M37.534,21.121v0.326c0,0.76,0.095,1.727,0.948,1.727c0.811,0,0.906-0.926,0.906-1.262h1.073
			c0,1.252-0.759,2.043-1.991,2.043c-0.926,0-2.074-0.275-2.074-2.896c0-1.484,0.316-3.066,2.096-3.066
			c1.58,0,2.002,0.949,2.002,2.529v0.6H37.534z M39.355,20.342v-0.305c0-0.717-0.23-1.264-0.873-1.264
			c-0.727,0-0.948,0.717-0.948,1.453v0.115H39.355L39.355,20.342z"/>
	</g>
</g>
</svg>
