<?xml version="1.0" encoding="utf-8"?>
<!-- Generator: Adobe Illustrator 16.0.0, SVG Export Plug-In . SVG Version: 6.00 Build 0)  -->
<!DOCTYPE svg PUBLIC "-//W3C//DTD SVG 1.1//EN" "http://www.w3.org/Graphics/SVG/1.1/DTD/svg11.dtd">
<svg version="1.1" xmlns="http://www.w3.org/2000/svg" xmlns:xlink="http://www.w3.org/1999/xlink" x="0px" y="0px" width="47px"
	 height="31px" viewBox="0 0 47 31" enable-background="new 0 0 47 31" xml:space="preserve">
<g id="Calque_1">
	<g>
		<path fill="#FFFFFF" d="M46.482,27.748c0,1.523-0.908,2.76-2.03,2.76H2.885c-1.122,0-2.031-1.236-2.031-2.76V3.278
			c0-1.524,0.91-2.76,2.031-2.76h41.567c1.122,0,2.03,1.236,2.03,2.76V27.748z"/>
		<path fill="#D5D5D5" d="M44.452,31.025H2.885c-1.405,0-2.548-1.471-2.548-3.277V3.278C0.337,1.471,1.48,0,2.885,0h41.567
			C45.856,0,47,1.471,47,3.278v24.47C47,29.555,45.856,31.025,44.452,31.025z M2.885,1.034c-0.82,0-1.514,1.027-1.514,2.244v24.47
			c0,1.216,0.694,2.242,1.514,2.242h41.567c0.821,0,1.515-1.026,1.515-2.242V3.278c0-1.216-0.693-2.244-1.515-2.244H2.885z"/>
	</g>
</g>
<g id="Calque_2">
	<g>
		<g>
			<g>
				<g>
					<path fill="#ED1C2E" d="M26.424,15.5c0,4.913-3.982,8.896-8.896,8.896S8.632,20.413,8.632,15.5s3.983-8.896,8.896-8.896
						S26.424,10.587,26.424,15.5z"/>
					<g>
						<path fill="#FCB131" d="M29.473,6.604c-2.299,0-4.395,0.872-5.973,2.303c-0.321,0.292-0.621,0.606-0.898,0.941h1.797
							c0.246,0.299,0.473,0.613,0.679,0.942h-3.153c-0.189,0.302-0.36,0.617-0.514,0.942h4.18c0.143,0.305,0.269,0.619,0.377,0.941
							h-4.933c-0.103,0.308-0.188,0.621-0.259,0.942h5.449c0.131,0.607,0.2,1.237,0.2,1.884c0,0.988-0.161,1.938-0.458,2.826h-4.933
							c0.108,0.322,0.233,0.637,0.376,0.942h4.18c-0.152,0.325-0.324,0.639-0.514,0.942h-3.152c0.205,0.328,0.432,0.643,0.678,0.94
							h1.797c-0.275,0.336-0.576,0.651-0.898,0.942c1.579,1.431,3.673,2.303,5.973,2.303c4.912,0,8.896-3.983,8.896-8.896
							C38.369,10.587,34.385,6.604,29.473,6.604z"/>
					</g>
				</g>
			</g>
			<g>
				<g>
					<polygon fill="#FFFFFF" points="13.351,17.842 12.385,17.842 12.938,14.373 11.703,17.842 11.045,17.842 10.964,14.393 
						10.382,17.842 9.478,17.842 10.233,13.329 11.622,13.329 11.661,16.122 12.598,13.329 14.098,13.329 					"/>
					<path fill="#FFFFFF" d="M15.729,16.207c-0.102-0.012-0.146-0.016-0.216-0.016c-0.547,0-0.824,0.188-0.824,0.559
						c0,0.229,0.135,0.374,0.346,0.374C15.429,17.124,15.713,16.75,15.729,16.207z M16.432,17.842c-0.129,0-0.801,0-0.801,0
						l0.02-0.381c-0.245,0.301-0.57,0.444-1.013,0.444c-0.524,0-0.883-0.409-0.883-1.003c0-0.894,0.625-1.414,1.696-1.414
						c0.109,0,0.25,0.01,0.394,0.028c0.03-0.121,0.038-0.173,0.038-0.238c0-0.243-0.169-0.334-0.62-0.334
						c-0.473-0.005-0.862,0.112-1.023,0.165c0.01-0.062,0.134-0.825,0.134-0.825c0.481-0.142,0.798-0.194,1.156-0.194
						c0.829,0,1.269,0.372,1.268,1.076c0.002,0.188-0.029,0.422-0.078,0.727C16.636,16.424,16.456,17.564,16.432,17.842z"/>
					<path fill="#FFFFFF" d="M29.385,13.451l-0.158,0.979c-0.344-0.173-0.594-0.243-0.862-0.243c-0.721,0-1.227,0.697-1.227,1.69
						c0,0.685,0.34,1.099,0.901,1.099c0.238,0,0.5-0.073,0.82-0.231l-0.17,1.028c-0.355,0.098-0.586,0.133-0.854,0.133
						c-1.039,0-1.688-0.748-1.688-1.948c0-1.613,0.896-2.741,2.176-2.741C28.746,13.216,29.244,13.396,29.385,13.451z"/>
					<path fill="#FFFFFF" d="M30.943,16.207c-0.101-0.012-0.146-0.016-0.215-0.016c-0.547,0-0.824,0.188-0.824,0.559
						c0,0.229,0.135,0.374,0.346,0.374C30.643,17.124,30.928,16.75,30.943,16.207z M31.646,17.842c-0.129,0-0.801,0-0.801,0
						l0.019-0.381c-0.244,0.301-0.569,0.444-1.012,0.444c-0.524,0-0.882-0.409-0.882-1.003c0-0.894,0.623-1.414,1.695-1.414
						c0.109,0,0.249,0.01,0.393,0.028c0.029-0.121,0.038-0.173,0.038-0.238c0-0.243-0.168-0.334-0.619-0.334
						c-0.472-0.005-0.862,0.112-1.022,0.165c0.01-0.062,0.135-0.825,0.135-0.825c0.48-0.142,0.798-0.194,1.155-0.194
						c0.829,0,1.269,0.372,1.268,1.076c0.002,0.188-0.029,0.422-0.078,0.727C31.851,16.424,31.671,17.564,31.646,17.842z"/>
					<path fill="#FFFFFF" d="M20.724,17.786c-0.265,0.083-0.47,0.119-0.694,0.119c-0.493,0-0.762-0.284-0.762-0.806
						c-0.008-0.163,0.07-0.589,0.132-0.979c0.056-0.344,0.419-2.505,0.419-2.505h0.96l-0.112,0.556h0.492l-0.131,0.882h-0.494
						c-0.111,0.698-0.271,1.567-0.272,1.683c0,0.189,0.101,0.271,0.331,0.271c0.109,0,0.195-0.011,0.26-0.034L20.724,17.786z"/>
					<path fill="#FFFFFF" d="M23.668,17.757c-0.33,0.101-0.648,0.148-0.986,0.148c-1.074-0.001-1.635-0.563-1.635-1.638
						c0-1.254,0.713-2.178,1.68-2.178c0.793,0,1.298,0.517,1.298,1.328c0,0.27-0.035,0.532-0.118,0.902h-1.912
						c-0.064,0.532,0.276,0.755,0.834,0.755c0.344,0,0.654-0.071,0.999-0.231L23.668,17.757z M23.128,15.58
						c0.005-0.076,0.102-0.654-0.446-0.654c-0.307,0-0.525,0.233-0.614,0.654H23.128z"/>
					<path fill="#FFFFFF" d="M17.011,15.332c0,0.465,0.226,0.784,0.735,1.024c0.392,0.185,0.452,0.238,0.452,0.405
						c0,0.229-0.173,0.332-0.555,0.332c-0.288,0-0.556-0.045-0.866-0.145c0,0-0.126,0.809-0.132,0.847
						c0.22,0.048,0.415,0.092,1.005,0.109c1.02,0,1.49-0.389,1.49-1.227c0-0.505-0.197-0.801-0.682-1.022
						c-0.404-0.187-0.451-0.228-0.451-0.399c0-0.198,0.16-0.3,0.473-0.3c0.189,0,0.448,0.021,0.693,0.056l0.139-0.852
						c-0.25-0.039-0.63-0.071-0.851-0.071C17.381,14.09,17.008,14.654,17.011,15.332z"/>
					<path fill="#FFFFFF" d="M36.758,17.842h-0.914L35.89,17.5c-0.265,0.283-0.536,0.405-0.891,0.405
						c-0.702,0-1.166-0.605-1.166-1.523c0-1.22,0.72-2.249,1.571-2.249c0.375,0,0.658,0.153,0.922,0.501l0.215-1.305h0.953
						L36.758,17.842z M35.333,16.993c0.45,0,0.767-0.51,0.767-1.236c0-0.466-0.181-0.72-0.513-0.72
						c-0.438,0-0.749,0.512-0.749,1.233C34.838,16.751,35.005,16.993,35.333,16.993z"/>
					<path fill="#FFFFFF" d="M32.516,14.172c-0.12,1.136-0.335,2.286-0.503,3.423l-0.044,0.247h0.966
						c0.346-2.244,0.429-2.683,0.971-2.628c0.087-0.459,0.247-0.861,0.366-1.064c-0.404-0.084-0.63,0.145-0.926,0.579
						c0.023-0.188,0.066-0.37,0.059-0.557H32.516L32.516,14.172z"/>
					<path fill="#FFFFFF" d="M24.566,14.172c-0.121,1.136-0.337,2.286-0.504,3.423l-0.045,0.247h0.967
						c0.346-2.244,0.429-2.683,0.97-2.628c0.087-0.459,0.248-0.861,0.367-1.064c-0.404-0.084-0.63,0.145-0.926,0.579
						c0.023-0.188,0.065-0.37,0.058-0.557H24.566L24.566,14.172z"/>
					<g>
						<path fill="#FFFFFF" d="M37.182,17.555c0-0.16,0.13-0.288,0.288-0.288c0.159,0,0.287,0.128,0.287,0.288
							c0,0.157-0.128,0.287-0.287,0.287C37.312,17.842,37.182,17.712,37.182,17.555z M37.469,17.772
							c0.121,0,0.219-0.098,0.219-0.218c0-0.121-0.098-0.219-0.219-0.219c-0.12,0-0.218,0.098-0.218,0.219
							C37.251,17.675,37.349,17.772,37.469,17.772z M37.431,17.68h-0.059v-0.252h0.106c0.022,0,0.045,0.001,0.064,0.013
							c0.021,0.014,0.032,0.038,0.032,0.063c0,0.028-0.017,0.055-0.044,0.064l0.047,0.111h-0.065l-0.038-0.1h-0.044V17.68
							L37.431,17.68z M37.431,17.537h0.032c0.012,0,0.025,0.001,0.036-0.005c0.01-0.006,0.015-0.019,0.015-0.029
							c0-0.01-0.006-0.021-0.014-0.026c-0.01-0.006-0.027-0.004-0.038-0.004h-0.031V17.537L37.431,17.537z"/>
					</g>
				</g>
			</g>
		</g>
	</g>
	<g>
		<path fill="#009DDD" d="M23.5,22.457c1.882-1.717,3.063-4.198,3.063-6.957c0-2.759-1.182-5.24-3.063-6.957
			c-1.653-1.509-3.847-2.429-6.254-2.429c-5.146,0-9.317,4.203-9.317,9.386s4.171,9.386,9.317,9.386
			C19.653,24.886,21.847,23.967,23.5,22.457L23.5,22.457z"/>
		<path fill="#ED1C2E" d="M29.755,6.114c-2.407,0-4.601,0.92-6.255,2.429c-0.337,0.308-0.65,0.64-0.94,0.994h1.881
			c0.257,0.315,0.495,0.646,0.711,0.994H21.85c-0.198,0.319-0.378,0.65-0.537,0.994h4.375c0.15,0.321,0.282,0.653,0.396,0.994
			h-5.165c-0.108,0.324-0.198,0.655-0.271,0.994h5.706c0.137,0.641,0.21,1.306,0.21,1.987c0,1.042-0.169,2.045-0.48,2.981h-5.165
			c0.113,0.341,0.244,0.672,0.395,0.994h4.375c-0.16,0.343-0.339,0.675-0.536,0.994H21.85c0.215,0.347,0.453,0.679,0.711,0.993h1.88
			c-0.289,0.354-0.603,0.687-0.94,0.994c1.654,1.51,3.848,2.429,6.255,2.429c5.146,0,9.317-4.202,9.317-9.386
			S34.9,6.114,29.755,6.114L29.755,6.114z"/>
		<path fill="#FFFFFF" d="M35.861,17.534c0-0.167,0.135-0.303,0.301-0.303s0.301,0.136,0.301,0.303c0,0.168-0.135,0.304-0.301,0.304
			S35.861,17.702,35.861,17.534L35.861,17.534z M36.162,17.765c0.126,0,0.229-0.104,0.229-0.23s-0.103-0.23-0.229-0.23
			c-0.127,0-0.229,0.104-0.229,0.23S36.035,17.765,36.162,17.765L36.162,17.765z M36.121,17.667H36.06v-0.266h0.112
			c0.022,0,0.047,0,0.066,0.014c0.021,0.014,0.035,0.04,0.035,0.066c0,0.03-0.019,0.058-0.047,0.068l0.049,0.117h-0.068
			l-0.041-0.104h-0.045V17.667v-0.15h0.034c0.013,0,0.026,0.001,0.038-0.005c0.01-0.007,0.016-0.02,0.016-0.031
			c0-0.01-0.007-0.021-0.016-0.026c-0.011-0.007-0.027-0.006-0.039-0.006h-0.033v0.068V17.667L36.121,17.667z"/>
		<polygon fill="#FFFFFF" points="16.082,17.838 14.922,17.838 15.611,14.179 14.024,17.838 12.967,17.838 12.774,14.2 
			12.083,17.838 11.03,17.838 11.93,13.079 13.739,13.079 13.835,16.024 15.11,13.079 16.996,13.079 		"/>
		<path fill="#FFFFFF" d="M29.041,17.79c-0.317,0.088-0.564,0.125-0.833,0.125c-0.593,0-0.917-0.299-0.917-0.85
			c0-0.109,0.012-0.225,0.034-0.347l0.07-0.379l0.055-0.307l0.537-2.955h1.153l-0.167,0.889h0.591l-0.158,0.941h-0.595l-0.306,1.614
			c-0.014,0.071-0.02,0.124-0.02,0.16c0,0.2,0.12,0.287,0.396,0.287c0.131,0,0.233-0.013,0.313-0.036L29.041,17.79L29.041,17.79z"/>
		<path fill="#FFFFFF" d="M32.428,13.999c-0.097-0.038-0.119-0.038-0.131-0.042c-0.062-0.013-0.095-0.021-0.1-0.022
			c-0.035-0.006-0.074-0.01-0.117-0.01c-0.381,0-0.654,0.171-1.01,0.629l0.103-0.587h-1.05l-0.707,3.871h1.16
			c0.414-2.367,0.593-2.782,1.149-2.782c0.042,0,0.091,0.004,0.146,0.01l0.136,0.028L32.428,13.999L32.428,13.999z"/>
		<path fill="#FFFFFF" d="M24.445,15.189c0,0.489,0.273,0.826,0.893,1.079c0.475,0.194,0.549,0.251,0.549,0.427
			c0,0.241-0.209,0.351-0.674,0.351c-0.351,0-0.676-0.048-1.051-0.153L24,17.785l0.053,0.009l0.215,0.039
			c0.068,0.013,0.172,0.024,0.307,0.034c0.279,0.021,0.494,0.032,0.646,0.032c1.238,0,1.811-0.408,1.811-1.292
			c0-0.53-0.239-0.842-0.827-1.076c-0.491-0.196-0.549-0.24-0.549-0.42c0-0.209,0.194-0.316,0.574-0.316
			c0.23,0,0.545,0.022,0.843,0.059l0.168-0.896c-0.305-0.041-0.766-0.075-1.033-0.075C24.895,13.882,24.44,14.476,24.445,15.189
			L24.445,15.189z"/>
		<path fill="#FFFFFF" d="M19.852,17.838h-0.963l0.021-0.401c-0.293,0.317-0.685,0.468-1.216,0.468c-0.629,0-1.06-0.431-1.06-1.057
			c0-0.943,0.749-1.492,2.037-1.492c0.131,0,0.299,0.01,0.472,0.029c0.036-0.127,0.046-0.182,0.046-0.251
			c0-0.257-0.201-0.353-0.744-0.353c-0.33,0-0.705,0.042-0.963,0.108l-0.16,0.041l-0.104,0.024l0.16-0.869
			c0.579-0.149,0.96-0.206,1.389-0.206c0.997,0,1.522,0.394,1.522,1.136c0,0.19-0.016,0.336-0.093,0.767l-0.243,1.373l-0.041,0.246
			l-0.029,0.196l-0.02,0.135L19.852,17.838L19.852,17.838z M19.006,16.113c-0.121-0.013-0.176-0.017-0.26-0.017
			c-0.656,0-0.99,0.198-0.99,0.59c0,0.241,0.163,0.395,0.416,0.395C18.645,17.081,18.986,16.686,19.006,16.113L19.006,16.113z"/>
		<path fill="#FFFFFF" d="M23.656,17.754c-0.398,0.105-0.782,0.158-1.189,0.156c-1.295,0-1.971-0.595-1.971-1.733
			c0-1.329,0.859-2.307,2.026-2.307c0.954,0,1.563,0.548,1.563,1.407c0,0.284-0.041,0.563-0.142,0.955h-2.306
			c-0.01,0.06-0.012,0.086-0.012,0.122c0,0.448,0.344,0.678,1.018,0.678c0.414,0,0.789-0.076,1.205-0.245L23.656,17.754
			L23.656,17.754z M23.038,15.451c0.007-0.081,0.01-0.146,0.01-0.197c0-0.315-0.203-0.499-0.548-0.499
			c-0.369,0-0.633,0.247-0.74,0.693L23.038,15.451L23.038,15.451z"/>
		<path fill="#FFFFFF" d="M36.033,16.083c-0.174,1.287-1.066,1.857-2.253,1.857c-1.312,0-1.842-0.801-1.842-1.783
			c0-1.372,0.897-2.302,2.283-2.302c1.203,0,1.842,0.765,1.842,1.747C36.063,15.842,36.063,15.857,36.033,16.083L36.033,16.083z
			 M34.839,15.588c0-0.405-0.163-0.787-0.639-0.787c-0.591,0-0.959,0.704-0.959,1.326c0,0.525,0.252,0.877,0.667,0.87
			c0.25,0,0.787-0.345,0.893-0.947C34.826,15.909,34.839,15.755,34.839,15.588L34.839,15.588z"/>
	</g>
</g>
</svg>
