<?xml version="1.0" encoding="utf-8"?>
<!-- Generator: Adobe Illustrator 16.0.0, SVG Export Plug-In . SVG Version: 6.00 Build 0)  -->
<!DOCTYPE svg PUBLIC "-//W3C//DTD SVG 1.1//EN" "http://www.w3.org/Graphics/SVG/1.1/DTD/svg11.dtd">
<svg version="1.1" xmlns="http://www.w3.org/2000/svg" xmlns:xlink="http://www.w3.org/1999/xlink" x="0px" y="0px" width="47px"
	 height="31px" viewBox="0 0 47 31" enable-background="new 0 0 47 31" xml:space="preserve">
<g id="Calque_1">
	<g>
		<path fill="#FFFFFF" d="M46.482,27.748c0,1.523-0.908,2.76-2.03,2.76H2.885c-1.122,0-2.031-1.236-2.031-2.76V3.278
			c0-1.524,0.91-2.76,2.031-2.76h41.567c1.122,0,2.03,1.236,2.03,2.76V27.748z"/>
		<path fill="#D5D5D5" d="M44.452,31.025H2.885c-1.405,0-2.548-1.471-2.548-3.277V3.278C0.337,1.471,1.48,0,2.885,0h41.567
			C45.856,0,47,1.471,47,3.278v24.47C47,29.555,45.856,31.025,44.452,31.025z M2.885,1.034c-0.82,0-1.514,1.027-1.514,2.244v24.47
			c0,1.216,0.694,2.242,1.514,2.242h41.567c0.821,0,1.515-1.026,1.515-2.242V3.278c0-1.216-0.693-2.244-1.515-2.244H2.885z"/>
	</g>
</g>
<g id="Calque_2">
	<g>
		<g>
			<g>
				<g>
					<path fill="#ED1C2E" d="M26.424,15.5c0,4.913-3.982,8.896-8.896,8.896S8.632,20.413,8.632,15.5s3.983-8.896,8.896-8.896
						S26.424,10.587,26.424,15.5z"/>
					<g>
						<path fill="#FCB131" d="M29.473,6.604c-2.299,0-4.395,0.872-5.973,2.303c-0.321,0.292-0.621,0.606-0.898,0.941h1.797
							c0.246,0.299,0.473,0.613,0.679,0.942h-3.153c-0.189,0.302-0.36,0.617-0.514,0.942h4.18c0.143,0.305,0.269,0.619,0.377,0.941
							h-4.933c-0.103,0.308-0.188,0.621-0.259,0.942h5.449c0.131,0.607,0.2,1.237,0.2,1.884c0,0.988-0.161,1.938-0.458,2.826h-4.933
							c0.108,0.322,0.233,0.637,0.376,0.942h4.18c-0.152,0.325-0.324,0.639-0.514,0.942h-3.152c0.205,0.328,0.432,0.643,0.678,0.94
							h1.797c-0.275,0.336-0.576,0.651-0.898,0.942c1.579,1.431,3.673,2.303,5.973,2.303c4.912,0,8.896-3.983,8.896-8.896
							C38.369,10.587,34.385,6.604,29.473,6.604z"/>
					</g>
				</g>
			</g>
			<g>
				<g>
					<polygon fill="#FFFFFF" points="13.351,17.842 12.385,17.842 12.938,14.373 11.703,17.842 11.045,17.842 10.964,14.393 
						10.382,17.842 9.478,17.842 10.233,13.329 11.622,13.329 11.661,16.122 12.598,13.329 14.098,13.329 					"/>
					<path fill="#FFFFFF" d="M15.729,16.207c-0.102-0.012-0.146-0.016-0.216-0.016c-0.547,0-0.824,0.188-0.824,0.559
						c0,0.229,0.135,0.374,0.346,0.374C15.429,17.124,15.713,16.75,15.729,16.207z M16.432,17.842c-0.129,0-0.801,0-0.801,0
						l0.02-0.381c-0.245,0.301-0.57,0.444-1.013,0.444c-0.524,0-0.883-0.409-0.883-1.003c0-0.894,0.625-1.414,1.696-1.414
						c0.109,0,0.25,0.01,0.394,0.028c0.03-0.121,0.038-0.173,0.038-0.238c0-0.243-0.169-0.334-0.62-0.334
						c-0.473-0.005-0.862,0.112-1.023,0.165c0.01-0.062,0.134-0.825,0.134-0.825c0.481-0.142,0.798-0.194,1.156-0.194
						c0.829,0,1.269,0.372,1.268,1.076c0.002,0.188-0.029,0.422-0.078,0.727C16.636,16.424,16.456,17.564,16.432,17.842z"/>
					<path fill="#FFFFFF" d="M29.385,13.451l-0.158,0.979c-0.344-0.173-0.594-0.243-0.862-0.243c-0.721,0-1.227,0.697-1.227,1.69
						c0,0.685,0.34,1.099,0.901,1.099c0.238,0,0.5-0.073,0.82-0.231l-0.17,1.028c-0.355,0.098-0.586,0.133-0.854,0.133
						c-1.039,0-1.688-0.748-1.688-1.948c0-1.613,0.896-2.741,2.176-2.741C28.746,13.216,29.244,13.396,29.385,13.451z"/>
					<path fill="#FFFFFF" d="M30.943,16.207c-0.101-0.012-0.146-0.016-0.215-0.016c-0.547,0-0.824,0.188-0.824,0.559
						c0,0.229,0.135,0.374,0.346,0.374C30.643,17.124,30.928,16.75,30.943,16.207z M31.646,17.842c-0.129,0-0.801,0-0.801,0
						l0.019-0.381c-0.244,0.301-0.569,0.444-1.012,0.444c-0.524,0-0.882-0.409-0.882-1.003c0-0.894,0.623-1.414,1.695-1.414
						c0.109,0,0.249,0.01,0.393,0.028c0.029-0.121,0.038-0.173,0.038-0.238c0-0.243-0.168-0.334-0.619-0.334
						c-0.472-0.005-0.862,0.112-1.022,0.165c0.01-0.062,0.135-0.825,0.135-0.825c0.48-0.142,0.798-0.194,1.155-0.194
						c0.829,0,1.269,0.372,1.268,1.076c0.002,0.188-0.029,0.422-0.078,0.727C31.851,16.424,31.671,17.564,31.646,17.842z"/>
					<path fill="#FFFFFF" d="M20.724,17.786c-0.265,0.083-0.47,0.119-0.694,0.119c-0.493,0-0.762-0.284-0.762-0.806
						c-0.008-0.163,0.07-0.589,0.132-0.979c0.056-0.344,0.419-2.505,0.419-2.505h0.96l-0.112,0.556h0.492l-0.131,0.882h-0.494
						c-0.111,0.698-0.271,1.567-0.272,1.683c0,0.189,0.101,0.271,0.331,0.271c0.109,0,0.195-0.011,0.26-0.034L20.724,17.786z"/>
					<path fill="#FFFFFF" d="M23.668,17.757c-0.33,0.101-0.648,0.148-0.986,0.148c-1.074-0.001-1.635-0.563-1.635-1.638
						c0-1.254,0.713-2.178,1.68-2.178c0.793,0,1.298,0.517,1.298,1.328c0,0.27-0.035,0.532-0.118,0.902h-1.912
						c-0.064,0.532,0.276,0.755,0.834,0.755c0.344,0,0.654-0.071,0.999-0.231L23.668,17.757z M23.128,15.58
						c0.005-0.076,0.102-0.654-0.446-0.654c-0.307,0-0.525,0.233-0.614,0.654H23.128z"/>
					<path fill="#FFFFFF" d="M17.011,15.332c0,0.465,0.226,0.784,0.735,1.024c0.392,0.185,0.452,0.238,0.452,0.405
						c0,0.229-0.173,0.332-0.555,0.332c-0.288,0-0.556-0.045-0.866-0.145c0,0-0.126,0.809-0.132,0.847
						c0.22,0.048,0.415,0.092,1.005,0.109c1.02,0,1.49-0.389,1.49-1.227c0-0.505-0.197-0.801-0.682-1.022
						c-0.404-0.187-0.451-0.228-0.451-0.399c0-0.198,0.16-0.3,0.473-0.3c0.189,0,0.448,0.021,0.693,0.056l0.139-0.852
						c-0.25-0.039-0.63-0.071-0.851-0.071C17.381,14.09,17.008,14.654,17.011,15.332z"/>
					<path fill="#FFFFFF" d="M36.758,17.842h-0.914L35.89,17.5c-0.265,0.283-0.536,0.405-0.891,0.405
						c-0.702,0-1.166-0.605-1.166-1.523c0-1.22,0.72-2.249,1.571-2.249c0.375,0,0.658,0.153,0.922,0.501l0.215-1.305h0.953
						L36.758,17.842z M35.333,16.993c0.45,0,0.767-0.51,0.767-1.236c0-0.466-0.181-0.72-0.513-0.72
						c-0.438,0-0.749,0.512-0.749,1.233C34.838,16.751,35.005,16.993,35.333,16.993z"/>
					<path fill="#FFFFFF" d="M32.516,14.172c-0.12,1.136-0.335,2.286-0.503,3.423l-0.044,0.247h0.966
						c0.346-2.244,0.429-2.683,0.971-2.628c0.087-0.459,0.247-0.861,0.366-1.064c-0.404-0.084-0.63,0.145-0.926,0.579
						c0.023-0.188,0.066-0.37,0.059-0.557H32.516L32.516,14.172z"/>
					<path fill="#FFFFFF" d="M24.566,14.172c-0.121,1.136-0.337,2.286-0.504,3.423l-0.045,0.247h0.967
						c0.346-2.244,0.429-2.683,0.97-2.628c0.087-0.459,0.248-0.861,0.367-1.064c-0.404-0.084-0.63,0.145-0.926,0.579
						c0.023-0.188,0.065-0.37,0.058-0.557H24.566L24.566,14.172z"/>
					<g>
						<path fill="#FFFFFF" d="M37.182,17.555c0-0.16,0.13-0.288,0.288-0.288c0.159,0,0.287,0.128,0.287,0.288
							c0,0.157-0.128,0.287-0.287,0.287C37.312,17.842,37.182,17.712,37.182,17.555z M37.469,17.772
							c0.121,0,0.219-0.098,0.219-0.218c0-0.121-0.098-0.219-0.219-0.219c-0.12,0-0.218,0.098-0.218,0.219
							C37.251,17.675,37.349,17.772,37.469,17.772z M37.431,17.68h-0.059v-0.252h0.106c0.022,0,0.045,0.001,0.064,0.013
							c0.021,0.014,0.032,0.038,0.032,0.063c0,0.028-0.017,0.055-0.044,0.064l0.047,0.111h-0.065l-0.038-0.1h-0.044V17.68
							L37.431,17.68z M37.431,17.537h0.032c0.012,0,0.025,0.001,0.036-0.005c0.01-0.006,0.015-0.019,0.015-0.029
							c0-0.01-0.006-0.021-0.014-0.026c-0.01-0.006-0.027-0.004-0.038-0.004h-0.031V17.537L37.431,17.537z"/>
					</g>
				</g>
			</g>
		</g>
	</g>
</g>
</svg>
