<?xml version="1.0" encoding="utf-8"?>
<!-- Generator: Adobe Illustrator 16.0.0, SVG Export Plug-In . SVG Version: 6.00 Build 0)  -->
<!DOCTYPE svg PUBLIC "-//W3C//DTD SVG 1.1//EN" "http://www.w3.org/Graphics/SVG/1.1/DTD/svg11.dtd">
<svg version="1.1" xmlns="http://www.w3.org/2000/svg" xmlns:xlink="http://www.w3.org/1999/xlink" x="0px" y="0px" width="47px"
	 height="31px" viewBox="0 0 47 31" enable-background="new 0 0 47 31" xml:space="preserve">
<g id="Calque_1">
	<g>
		<path fill="#FFFFFF" d="M46.482,27.748c0,1.523-0.908,2.76-2.03,2.76H2.885c-1.122,0-2.031-1.236-2.031-2.76V3.278
			c0-1.524,0.91-2.76,2.031-2.76h41.567c1.122,0,2.03,1.236,2.03,2.76V27.748z"/>
		<path fill="#D5D5D5" d="M44.452,31.025H2.885c-1.405,0-2.548-1.471-2.548-3.277V3.278C0.337,1.471,1.48,0,2.885,0h41.567
			C45.856,0,47,1.471,47,3.278v24.47C47,29.555,45.856,31.025,44.452,31.025z M2.885,1.034c-0.82,0-1.514,1.027-1.514,2.244v24.47
			c0,1.216,0.694,2.242,1.514,2.242h41.567c0.821,0,1.515-1.026,1.515-2.242V3.278c0-1.216-0.693-2.244-1.515-2.244H2.885z"/>
	</g>
</g>
<g id="Calque_2">
	<g>
		<path fill="#187FAD" d="M33.915,13.277c-0.848,0-1.518,0.225-2.03,0.327l-0.157,1.288c0.256-0.123,1.063-0.348,1.734-0.368
			c0.67-0.021,1.064,0.122,0.926,0.695c-1.99,0-3.33,0.409-3.606,1.697c-0.395,2.209,2.03,2.146,2.995,1.186l-0.117,0.533h1.773
			l0.769-3.518C36.517,13.625,35.156,13.256,33.915,13.277z M34.033,16.875c-0.099,0.471-0.473,0.676-0.927,0.695
			c-0.394,0.021-0.749-0.326-0.492-0.736c0.197-0.348,0.749-0.428,1.084-0.428c0.138,0,0.296,0,0.434,0
			C34.093,16.568,34.072,16.713,34.033,16.875z"/>
		<polygon fill="#187FAD" points="37.719,11.887 36.251,18.635 38.054,18.635 39.538,11.887 37.719,11.887 		"/>
		<path fill="#187FAD" d="M29.44,11.907h-3.299l-1.462,6.728h1.916l0.494-2.229h1.362c1.344,0,2.449-0.819,2.746-2.209
			C31.534,12.623,30.389,11.907,29.44,11.907z M29.382,14.197c-0.119,0.512-0.633,0.92-1.127,0.92h-0.889l0.395-1.839h0.949
			C29.204,13.277,29.499,13.686,29.382,14.197z"/>
		<path fill="#195A7F" d="M16.64,13.277c-0.837,0-1.5,0.225-1.986,0.327l-0.156,1.288c0.234-0.123,1.032-0.348,1.694-0.368
			s1.052,0.122,0.935,0.695c-1.966,0-3.291,0.409-3.563,1.697c-0.389,2.209,2.005,2.146,2.94,1.186l-0.117,0.533h1.772l0.759-3.518
			C19.229,13.625,17.866,13.256,16.64,13.277z M16.775,16.875c-0.097,0.471-0.487,0.676-0.935,0.695
			c-0.389,0.021-0.72-0.326-0.467-0.736c0.194-0.348,0.74-0.428,1.051-0.428c0.156,0,0.292,0,0.448,0
			C16.834,16.568,16.795,16.713,16.775,16.875z"/>
		<polygon fill="#195A7F" points="19.688,13.374 21.46,13.374 21.746,16.506 23.479,13.374 25.308,13.374 21.099,20.871 
			19.118,20.871 20.413,18.668 19.688,13.374 		"/>
		<path fill="#195A7F" d="M12.233,11.907H8.926L7.46,18.635h1.941l0.476-2.229h1.386c1.327,0,2.436-0.819,2.732-2.209
			C14.332,12.623,13.203,11.907,12.233,11.907z M12.173,14.197c-0.119,0.512-0.614,0.92-1.109,0.92h-0.911l0.416-1.839h0.951
			C11.995,13.277,12.312,13.686,12.173,14.197z"/>
	</g>
</g>
</svg>
