<?xml version="1.0" encoding="utf-8"?>
<!-- Generator: Adobe Illustrator 16.0.0, SVG Export Plug-In . SVG Version: 6.00 Build 0)  -->
<!DOCTYPE svg PUBLIC "-//W3C//DTD SVG 1.1//EN" "http://www.w3.org/Graphics/SVG/1.1/DTD/svg11.dtd">
<svg version="1.1" xmlns="http://www.w3.org/2000/svg" xmlns:xlink="http://www.w3.org/1999/xlink" x="0px" y="0px" width="47px"
	 height="31px" viewBox="0 0 47 31" enable-background="new 0 0 47 31" xml:space="preserve">
<g id="Calque_1">
	<g>
		<path fill="#FFFFFF" d="M46.482,27.748c0,1.523-0.908,2.76-2.03,2.76H2.885c-1.122,0-2.031-1.236-2.031-2.76V3.278
			c0-1.524,0.91-2.76,2.031-2.76h41.567c1.122,0,2.03,1.236,2.03,2.76V27.748z"/>
		<path fill="#D5D5D5" d="M44.452,31.025H2.885c-1.405,0-2.548-1.471-2.548-3.277V3.278C0.337,1.471,1.48,0,2.885,0h41.567
			C45.856,0,47,1.471,47,3.278v24.47C47,29.555,45.856,31.025,44.452,31.025z M2.885,1.034c-0.82,0-1.514,1.027-1.514,2.244v24.47
			c0,1.216,0.694,2.242,1.514,2.242h41.567c0.821,0,1.515-1.026,1.515-2.242V3.278c0-1.216-0.693-2.244-1.515-2.244H2.885z"/>
	</g>
</g>
<g id="Calque_2">
	<g>
		<path fill="#1F1F1F" d="M4.982,6.983h2.38c1.443,0,2.075,0.906,2.075,2.19c0,1.348-0.79,2.222-2.201,2.222H6.183v3.106H4.982
			V6.983L4.982,6.983z M6.183,10.49h0.853c0.643,0,1.201-0.348,1.201-1.295c0-0.811-0.327-1.306-1.285-1.306H6.183V10.49z"/>
		<path fill="#1F1F1F" d="M13.892,13.322c0,0.211,0.126,0.4,0.295,0.4c0.074,0,0.147-0.01,0.189-0.031v0.737
			c-0.137,0.063-0.337,0.137-0.558,0.137c-0.505,0-0.927-0.2-0.958-0.747h-0.021c-0.305,0.558-0.748,0.831-1.411,0.831
			c-0.906,0-1.475-0.505-1.475-1.59c0-1.264,0.548-1.527,1.316-1.78l0.885-0.242c0.411-0.116,0.664-0.232,0.664-0.727
			c0-0.516-0.179-0.843-0.779-0.843c-0.758,0-0.864,0.537-0.864,1.085h-1.074c0-1.201,0.495-1.864,1.991-1.864
			c1,0,1.801,0.39,1.801,1.39V13.322L13.892,13.322z M12.818,11.511c-0.295,0.232-0.927,0.369-1.264,0.527
			c-0.327,0.158-0.463,0.495-0.463,0.916c0,0.474,0.232,0.853,0.706,0.853c0.685,0,1.021-0.516,1.021-1.348V11.511z"/>
		<path fill="#1F1F1F" d="M15.104,6.898h1.138v1.138h-1.138V6.898z M15.104,8.836h1.138v5.666h-1.138V8.836z"/>
		<path fill="#1F1F1F" d="M18.368,11.817v0.326c0,0.758,0.095,1.727,0.947,1.727c0.811,0,0.906-0.926,0.906-1.264h1.074
			c0,1.253-0.758,2.043-1.99,2.043c-0.928,0-2.075-0.273-2.075-2.896c0-1.485,0.315-3.064,2.096-3.064
			c1.58,0,2.001,0.948,2.001,2.527v0.601H18.368z M20.19,11.038v-0.306c0-0.716-0.232-1.264-0.875-1.264
			c-0.727,0-0.947,0.716-0.947,1.454v0.116H20.19L20.19,11.038z"/>
		<path fill="#1F1F1F" d="M22.317,8.836h1.074V9.5h0.031c0.285-0.505,0.822-0.811,1.358-0.811c0.812,0,1.147,0.39,1.316,0.864
			c0.327-0.548,0.748-0.864,1.433-0.864c0.801,0,1.379,0.411,1.379,1.506v4.307h-1.137v-3.886c0-0.737-0.221-1.021-0.685-1.021
			s-0.905,0.369-0.905,1.106v3.801h-1.138v-3.886c0-0.737-0.222-1.021-0.695-1.021c-0.453,0-0.896,0.369-0.896,1.106v3.801h-1.137
			V8.836L22.317,8.836z"/>
		<path fill="#1F1F1F" d="M31.037,11.817v0.326c0,0.758,0.095,1.727,0.948,1.727c0.811,0,0.905-0.926,0.905-1.264h1.074
			c0,1.253-0.759,2.043-1.99,2.043c-0.927,0-2.075-0.273-2.075-2.896c0-1.485,0.316-3.064,2.096-3.064
			c1.58,0,2.002,0.948,2.002,2.527v0.601H31.037z M32.858,11.038v-0.306c0-0.716-0.23-1.264-0.873-1.264
			c-0.727,0-0.948,0.716-0.948,1.454v0.116H32.858L32.858,11.038z"/>
		<path fill="#1F1F1F" d="M34.934,8.836h1.074V9.5h0.032c0.283-0.505,0.82-0.811,1.453-0.811c0.863,0,1.411,0.39,1.411,1.538v4.275
			h-1.138v-3.886c0-0.737-0.221-1.021-0.789-1.021c-0.464,0-0.906,0.369-0.906,1.106v3.801h-1.138V8.836z"/>
		<path fill="#1F1F1F" d="M39.493,8.836h0.779V7.225h1.138v1.611h0.927v0.842H41.41v3.381c0,0.442,0.126,0.601,0.517,0.601
			c0.168,0,0.305-0.011,0.41-0.032v0.843c-0.242,0.063-0.559,0.095-0.916,0.095c-0.769,0-1.148-0.211-1.148-1.369V9.679h-0.779
			V8.836z"/>
		<path fill="#0071AB" d="M6.72,18.129h1.074v0.663h0.032c0.284-0.505,0.821-0.811,1.358-0.811c0.811,0,1.148,0.39,1.316,0.863
			c0.327-0.547,0.748-0.863,1.433-0.863c0.8,0,1.379,0.411,1.379,1.506v4.308h-1.137v-3.886c0-0.737-0.221-1.022-0.685-1.022
			s-0.906,0.369-0.906,1.106v3.802H9.448v-3.886c0-0.737-0.221-1.022-0.695-1.022c-0.453,0-0.895,0.369-0.895,1.106v3.802H6.72
			V18.129L6.72,18.129z"/>
		<path fill="#0071AB" d="M18.179,22.615c0,0.211,0.126,0.4,0.295,0.4c0.073,0,0.146-0.011,0.189-0.032v0.737
			c-0.137,0.063-0.338,0.137-0.559,0.137c-0.506,0-0.926-0.199-0.958-0.747h-0.021c-0.307,0.558-0.748,0.832-1.412,0.832
			c-0.906,0-1.474-0.506-1.474-1.591c0-1.264,0.547-1.526,1.316-1.779l0.885-0.242c0.411-0.116,0.664-0.231,0.664-0.727
			c0-0.517-0.18-0.843-0.779-0.843c-0.759,0-0.863,0.537-0.863,1.085h-1.075c0-1.201,0.495-1.864,1.991-1.864
			c1,0,1.801,0.39,1.801,1.391V22.615L18.179,22.615z M17.104,20.804c-0.295,0.231-0.927,0.369-1.264,0.526
			c-0.326,0.158-0.464,0.495-0.464,0.917c0,0.474,0.231,0.853,0.706,0.853c0.684,0,1.021-0.516,1.021-1.348V20.804z"/>
		<path fill="#0071AB" d="M20.474,24.279c0,0.348,0.316,0.674,0.822,0.674c0.59,0,0.958-0.411,0.958-1.063v-0.916h-0.021
			c-0.211,0.495-0.738,0.779-1.285,0.779c-1.327,0-1.695-1.306-1.695-2.854c0-1.242,0.189-2.917,1.801-2.917
			c0.663,0,1.137,0.432,1.242,0.843h0.021v-0.695h1.074v5.392c0,1.38-0.59,2.212-2.117,2.212c-1.685,0-1.874-0.99-1.874-1.453
			H20.474z M21.274,22.847c0.885,0,0.979-1.116,0.979-2.012c0-0.927-0.116-1.948-0.905-1.948c-0.822,0-0.959,0.843-0.959,1.896
			C20.39,21.752,20.433,22.847,21.274,22.847z"/>
		<path fill="#0071AB" d="M28.12,22.615c0,0.211,0.126,0.4,0.295,0.4c0.073,0,0.147-0.011,0.189-0.032v0.737
			c-0.137,0.063-0.337,0.137-0.559,0.137c-0.505,0-0.926-0.199-0.958-0.747h-0.021c-0.307,0.558-0.748,0.832-1.412,0.832
			c-0.905,0-1.475-0.506-1.475-1.591c0-1.264,0.549-1.526,1.316-1.779l0.885-0.242c0.411-0.116,0.664-0.231,0.664-0.727
			c0-0.517-0.18-0.843-0.779-0.843c-0.758,0-0.863,0.537-0.863,1.085h-1.074c0-1.201,0.494-1.864,1.99-1.864
			c1,0,1.801,0.39,1.801,1.391V22.615L28.12,22.615z M27.046,20.804c-0.295,0.231-0.927,0.369-1.264,0.526
			c-0.326,0.158-0.463,0.495-0.463,0.917c0,0.474,0.23,0.853,0.705,0.853c0.685,0,1.021-0.516,1.021-1.348V20.804z"/>
		<path fill="#0071AB" d="M31.722,19.782v-0.147c0-0.453-0.158-0.874-0.748-0.874c-0.453,0-0.811,0.211-0.811,0.737
			c0,0.442,0.2,0.621,0.801,0.832l0.727,0.253c0.842,0.284,1.232,0.737,1.232,1.632c0,1.211-0.885,1.728-2.033,1.728
			c-1.432,0-1.863-0.664-1.863-1.759v-0.211h1.01v0.18c0,0.652,0.232,1.011,0.885,1.011c0.621,0,0.928-0.316,0.928-0.832
			c0-0.422-0.222-0.695-0.622-0.832L30.3,21.172c-0.854-0.294-1.211-0.727-1.211-1.632c0-1.063,0.769-1.559,1.938-1.559
			c1.443,0,1.77,0.843,1.77,1.548v0.253H31.722L31.722,19.782z"/>
		<path fill="#0071AB" d="M33.817,16.191h1.137v1.137h-1.137V16.191z M33.817,18.129h1.137v5.666h-1.137V18.129z"/>
		<path fill="#0071AB" d="M36.103,18.129h1.074v0.663h0.031c0.285-0.505,0.822-0.811,1.453-0.811c0.864,0,1.412,0.39,1.412,1.538
			v4.275h-1.138v-3.886c0-0.737-0.222-1.021-0.79-1.021c-0.463,0-0.905,0.368-0.905,1.105v3.802h-1.138V18.129L36.103,18.129z"/>
	</g>
</g>
</svg>
