<?xml version="1.0" encoding="utf-8"?>
<!-- Generator: Adobe Illustrator 16.0.0, SVG Export Plug-In . SVG Version: 6.00 Build 0)  -->
<!DOCTYPE svg PUBLIC "-//W3C//DTD SVG 1.1//EN" "http://www.w3.org/Graphics/SVG/1.1/DTD/svg11.dtd">
<svg version="1.1" xmlns="http://www.w3.org/2000/svg" xmlns:xlink="http://www.w3.org/1999/xlink" x="0px" y="0px" width="47px"
	 height="31px" viewBox="0 0 47 31" enable-background="new 0 0 47 31" xml:space="preserve">
<g id="Calque_1">
	<g>
		<path fill="#FFFFFF" d="M46.482,27.748c0,1.523-0.908,2.76-2.03,2.76H2.885c-1.122,0-2.031-1.236-2.031-2.76V3.278
			c0-1.524,0.91-2.76,2.031-2.76h41.567c1.122,0,2.03,1.236,2.03,2.76V27.748z"/>
		<path fill="#D5D5D5" d="M44.452,31.025H2.885c-1.405,0-2.548-1.471-2.548-3.277V3.278C0.337,1.471,1.48,0,2.885,0h41.567
			C45.856,0,47,1.471,47,3.278v24.47C47,29.555,45.856,31.025,44.452,31.025z M2.885,1.034c-0.82,0-1.514,1.027-1.514,2.244v24.47
			c0,1.216,0.694,2.242,1.514,2.242h41.567c0.821,0,1.515-1.026,1.515-2.242V3.278c0-1.216-0.693-2.244-1.515-2.244H2.885z"/>
	</g>
</g>
<g id="Calque_2">
	<g>
		<g>
			<polygon fill="#0066B2" points="21.344,20.582 18.701,20.582 20.354,10.426 22.998,10.426 			"/>
			<path fill="#0066B2" d="M16.479,10.426l-2.521,6.984l-0.298-1.503l0,0l-0.89-4.566c0,0-0.109-0.915-1.256-0.915H7.348
				l-0.05,0.171c0,0,1.275,0.265,2.766,1.163l2.297,8.822h2.756l4.206-10.156H16.479L16.479,10.426z"/>
			<path fill="#0066B2" d="M37.274,20.582h2.428l-2.118-10.156h-2.125c-0.981,0-1.221,0.756-1.221,0.756l-3.943,9.4h2.756
				l0.552-1.508h3.361L37.274,20.582z M34.364,16.988l1.39-3.799l0.781,3.799H34.364z"/>
			<path fill="#0066B2" d="M30.502,12.869l0.378-2.181c0,0-1.165-0.444-2.378-0.444c-1.313,0-4.43,0.575-4.43,3.361
				c0,2.625,3.658,2.659,3.658,4.034c0,1.379-3.28,1.133-4.361,0.266l-0.396,2.279c0,0,1.183,0.572,2.985,0.572
				c1.806,0,4.528-0.934,4.528-3.477c0-2.64-3.691-2.885-3.691-4.035C26.795,12.098,29.369,12.244,30.502,12.869z"/>
		</g>
		<path fill="#F9A533" d="M13.659,15.907l-0.89-4.566c0,0-0.109-0.915-1.256-0.915H7.348l-0.05,0.171c0,0,2.005,0.416,3.926,1.972
			C13.059,14.054,13.659,15.907,13.659,15.907z"/>
	</g>
</g>
</svg>
