<?xml version="1.0" encoding="UTF-8" standalone="no"?><!DOCTYPE svg PUBLIC "-//W3C//DTD SVG 1.1//EN" "http://www.w3.org/Graphics/SVG/1.1/DTD/svg11.dtd"><svg width="100%" height="100%" viewBox="0 0 1067 1067" version="1.1" xmlns="http://www.w3.org/2000/svg" xmlns:xlink="http://www.w3.org/1999/xlink" xml:space="preserve" xmlns:serif="http://www.serif.com/" style="fill-rule:evenodd;clip-rule:evenodd;stroke-linejoin:round;stroke-miterlimit:2;"><rect id="Plan-de-travail1" serif:id="Plan de travail1" x="0" y="0" width="1066.67" height="1066.67" style="fill:none;"/><g><path id="XMLID_485_" d="M1034.41,710.131c-9.655,-9.399 -24.224,-11.526 -36.152,-5.261c-177.816,93.328 -402.751,65.279 -552.241,-84.209c-149.494,-149.497 -177.535,-374.442 -84.207,-552.252c6.269,-11.913 4.117,-26.505 -5.301,-36.126c-9.383,-9.632 -23.93,-12.13 -35.987,-6.133c-50.636,25.137 -98.151,58.73 -140.344,100.921c-209.677,209.698 -209.677,549.701 0,759.399c209.746,209.713 549.718,209.713 759.427,0c42.188,-42.19 75.769,-89.674 100.909,-140.312c5.99,-12.065 3.515,-26.608 -6.104,-36.027Z" style="fill:#7479f3;fill-rule:nonzero;"/><path id="XMLID_484_" d="M663.13,593.349c-0.735,1.82 -0.194,3.935 1.379,5.16c1.544,1.222 3.726,1.287 5.326,0.151l69.201,-49.151l78.58,32.194c1.852,0.736 3.926,0.184 5.171,-1.356c1.234,-1.542 1.272,-3.719 0.134,-5.332l-49.155,-69.232l32.189,-78.55c0.748,-1.825 0.21,-3.935 -1.362,-5.163c-1.544,-1.222 -3.727,-1.287 -5.343,-0.151l-69.188,49.149l-78.594,-32.183c-1.84,-0.742 -3.908,-0.193 -5.156,1.351c-1.247,1.54 -1.272,3.725 -0.132,5.332l49.157,69.233l-32.207,78.548Z" style="fill:#7479f3;fill-rule:nonzero;"/><path id="XMLID_483_" d="M481.302,221l57.107,4.227l26.97,50.481c0.903,1.743 2.885,2.67 4.832,2.251c1.938,-0.407 3.34,-2.05 3.514,-4.023l4.226,-57.07l50.494,-26.995c1.743,-0.939 2.655,-2.9 2.255,-4.842c-0.405,-1.928 -2.043,-3.368 -4.025,-3.502l-57.105,-4.224l-26.975,-50.483c-0.909,-1.746 -2.887,-2.668 -4.827,-2.247c-1.945,0.403 -3.344,2.043 -3.516,4.021l-4.231,57.072l-50.492,26.991c-1.745,0.939 -2.648,2.9 -2.256,4.844c0.408,1.928 2.051,3.367 4.029,3.499Z" style="fill:#7479f3;fill-rule:nonzero;"/><path id="XMLID_482_" d="M842.818,163.917l-1.742,31.72c-0.094,1.957 1.115,3.767 2.988,4.421c1.84,0.656 3.925,0 5.052,-1.609l18.432,-25.852l31.773,1.725c1.98,0.117 3.793,-1.092 4.421,-2.965c0.669,-1.861 0,-3.939 -1.603,-5.077l-25.87,-18.451l1.707,-31.75c0.093,-1.961 -1.114,-3.771 -2.954,-4.423c-1.875,-0.652 -3.952,0 -5.091,1.609l-18.466,25.887l-31.702,-1.726c-1.978,-0.115 -3.788,1.108 -4.415,2.967c-0.683,1.86 0,3.937 1.597,5.079l25.873,18.445Z" style="fill:#7479f3;fill-rule:nonzero;"/></g></svg>