<?xml version="1.0" encoding="UTF-8" standalone="no"?><!DOCTYPE svg PUBLIC "-//W3C//DTD SVG 1.1//EN" "http://www.w3.org/Graphics/SVG/1.1/DTD/svg11.dtd"><svg width="100%" height="100%" viewBox="0 0 1067 1067" version="1.1" xmlns="http://www.w3.org/2000/svg" xmlns:xlink="http://www.w3.org/1999/xlink" xml:space="preserve" xmlns:serif="http://www.serif.com/" style="fill-rule:evenodd;clip-rule:evenodd;stroke-linejoin:round;stroke-miterlimit:2;"><rect id="Plan-de-travail1" serif:id="Plan de travail1" x="0" y="0" width="1066.67" height="1066.67" style="fill:none;"/><g><path d="M532.897,244.16c-0.018,0 -0.036,0 -0.054,0c-158.688,0 -289.269,130.581 -289.269,289.269c0,158.688 130.581,289.268 289.269,289.268c158.686,0 289.266,-130.577 289.268,-289.264c-0.163,-158.606 -130.608,-289.077 -289.214,-289.273Z" style="fill:#7479f3;fill-rule:nonzero;"/><path d="M992.704,482.387l-67.994,-0c-28.003,-0 -51.046,23.043 -51.046,51.046c0,28.004 23.043,51.047 51.046,51.047l67.994,-0c28.003,-0 51.046,-23.043 51.046,-51.047c0,-28.003 -23.043,-51.046 -51.046,-51.046Z" style="fill:#7479f3;fill-rule:nonzero;"/><path d="M532.897,873.561c-27.982,0.042 -50.989,23.065 -51.013,51.046l-0,68.059c-0,27.982 23.026,51.008 51.009,51.008c27.982,0 51.008,-23.026 51.008,-51.008l0,-68.059c-0.02,-27.98 -23.025,-51.003 -51.004,-51.046Z" style="fill:#7479f3;fill-rule:nonzero;"/><path d="M192.96,533.433c-0.024,-27.981 -23.032,-51.004 -51.013,-51.046l-67.984,-0c-28.003,-0 -51.046,23.043 -51.046,51.046c-0,28.004 23.043,51.047 51.046,51.047l67.984,-0c27.982,-0.043 50.989,-23.065 51.013,-51.047Z" style="fill:#7479f3;fill-rule:nonzero;"/><path d="M532.897,193.106c27.981,-0.042 50.988,-23.065 51.013,-51.046l-0,-68.059c-0,-27.983 -23.027,-51.009 -51.009,-51.009c-27.983,0 -51.009,23.026 -51.009,51.009l0,68.059c0.021,27.98 23.025,51.003 51.005,51.046Z" style="fill:#7479f3;fill-rule:nonzero;"/><path d="M845.711,292.761l48.125,-48.124c9.606,-9.568 15.011,-22.582 15.011,-36.14c0,-27.982 -23.026,-51.009 -51.008,-51.009c-13.558,0 -26.572,5.406 -36.14,15.011l-48.125,48.126c-9.606,9.568 -15.011,22.581 -15.011,36.139c0,27.983 23.026,51.009 51.009,51.009c13.558,-0 26.571,-5.406 36.139,-15.012Z" style="fill:#7479f3;fill-rule:nonzero;"/><path d="M845.705,774.11c-9.567,-9.601 -22.578,-15.003 -36.132,-15.003c-27.982,-0 -51.009,23.026 -51.009,51.009c0,13.554 5.403,26.564 15.004,36.132l48.125,48.124c9.567,9.601 22.578,15.004 36.132,15.004c27.982,-0 51.009,-23.027 51.009,-51.009c-0,-13.555 -5.403,-26.565 -15.004,-36.132l-48.125,-48.125Z" style="fill:#7479f3;fill-rule:nonzero;"/><path d="M220.082,774.104l-48.124,48.125c-9.61,9.569 -15.018,22.586 -15.018,36.147c-0,27.982 23.026,51.008 51.008,51.008c13.561,0 26.578,-5.408 36.146,-15.018l48.126,-48.124c9.601,-9.568 15.003,-22.578 15.003,-36.132c0,-27.983 -23.026,-51.009 -51.009,-51.009c-13.554,-0 -26.564,5.402 -36.132,15.003Z" style="fill:#7479f3;fill-rule:nonzero;"/><path d="M220.088,292.756c9.565,9.581 22.562,14.971 36.1,14.971c27.982,-0 51.009,-23.026 51.009,-51.009c-0,-13.538 -5.39,-26.535 -14.971,-36.099l-48.125,-48.126c-9.571,-9.624 -22.597,-15.041 -36.17,-15.041c-27.982,0 -51.009,23.027 -51.009,51.009c0,13.573 5.418,26.599 15.042,36.17l48.124,48.125Z" style="fill:#7479f3;fill-rule:nonzero;"/></g></svg>